#N canvas 176 101 348 293 12;
#X obj 23 220 bng 18 250 50 0 \$0-sloadfile \$0-sloadfileinit Load 21 9 0 8 #00ff04 #000000 #000000;
#N canvas 209 160 395 273 sampleloader 0;
#X obj 18 39 openpanel;
#X obj 18 174 soundfiler, f 14;
#X obj 18 88 pack s f, f 11;
#X obj 18 239 s \$0-slength;
#X obj 92 39 loadbang;
#X obj 92 63 f \$0;
#X obj 113 239 s \$0-srate;
#X obj 256 14 loadbang;
#X obj 256 36 f \$0;
#X obj 18 14 inlet Open file panel;
#X msg 256 58 \; \$1-waver0 edit 0;
#X floatatom 18 196 5 0 0 0 - - - 0;
#X listbox 113 196 20 0 0 0 - - - 0;
#X obj 113 217 unpack f;
#N canvas 92 126 185 117 arrays 0;
#X obj 14 10 array define \$0-waver0;
#X obj 14 34 array define \$0-waver1;
#X obj 14 58 array define \$0-waver2;
#X obj 14 82 array define \$0-waver3;
#X restore 179 14 pd arrays;
#X msg 18 117 read -resize \$1 \$2-waver0 \$2-waver1 \$2-waver2 \$2-waver3, f 20;
#X connect 0 0 2 0;
#X connect 1 0 11 0;
#X connect 1 1 12 0;
#X connect 2 0 15 0;
#X connect 4 0 5 0;
#X connect 5 0 2 1;
#X connect 7 0 8 0;
#X connect 8 0 10 0;
#X connect 9 0 0 0;
#X connect 11 0 3 0;
#X connect 12 0 13 0;
#X connect 13 0 6 0;
#X connect 15 0 1 0;
#X restore 16 41 pd sampleloader;
#X f 17;
#N canvas 335 134 357 341 sampleplayer 0;
#X obj 12 299 outlet~;
#X obj 12 222 *~ 1;
#X obj 136 251 r \$0-switch;
#X obj 75 274 spigot, f 9;
#X obj 75 299 tabwrite~ \$0-0 \$0-_1 \$0-__2 \$0-___3;
#X text 150 273 Show only ch. 0-3 for now.;
#N canvas 411 445 193 90 ll_b 0;
#X obj 9 8 block~ 64 1 0.00048828;
#X obj 9 33 bang~;
#X obj 9 57 outlet;
#X connect 1 0 2 0;
#X restore 75 251 pd ll_b;
#N canvas 411 445 213 191 ll_b 0;
#X obj 11 132 bang~;
#X obj 11 156 outlet;
#X obj 11 11 loadbang;
#X obj 11 35 samplerate~;
#X msg 11 83 set 64 1 \$1;
#X obj 11 107 block~;
#X obj 11 59 expr ((1/$f1)*($f1/2048));
#X connect 0 0 1 0;
#X connect 2 0 3 0;
#X connect 3 0 6 0;
#X connect 4 0 5 0;
#X connect 6 0 4 0;
#X restore 12 18 pd ll_b;
#X obj 12 42 i;
#X obj 12 66 + 1;
#X obj 44 66 r \$0-slength;
#X obj 12 90 mod, f 5;
#X obj 12 114 sig~;
#X msg 44 42 -1, f 2;
#X obj 12 137 tabread~ \$0-waver0 \$0-waver1 \$0-waver2 \$0-waver3, f 11;
#X connect 1 0 0 0;
#X connect 1 0 4 0;
#X connect 2 0 3 1;
#X connect 3 0 4 0;
#X connect 6 0 3 0;
#X connect 7 0 8 0;
#X connect 8 0 9 0;
#X connect 9 0 11 0;
#X connect 10 0 11 1;
#X connect 10 0 13 0;
#X connect 11 0 8 1;
#X connect 11 0 12 0;
#X connect 12 0 14 0;
#X connect 13 0 8 1;
#X connect 14 0 1 0;
#X coords 0 341 1 340 180 45 0;
#X restore 16 70 pd sampleplayer;
#X obj 16 17 r \$0-sloadfile;
#X text 167 240 Author: Martin Heinze, f 22;
#X obj 73 220 tgl 18 0 \$0-switch \$0-switchinit Render 21 9 0 8 #fcfcfc #000000 #000000 0 1;
#X obj 16 94 outlet~;
#X obj 186 143 bng 19 250 50 0 empty empty empty 0 -10 0 12 #fcfcfc #000000 #000000;
#N canvas 411 449 351 89 source 0;
#X obj 7 7 inlet;
#X obj 7 55 pdcontrol;
#X msg 7 31 browse https://github.com/devstermarts/UnRAVEl;
#X connect 0 0 2 0;
#X connect 2 0 1 0;
#X restore 186 167 pd source;
#X text 210 144 <- read more;
#X text 153 16 ch4ns0n is a 4ch sampler that plays back latent signal songs at 21Hz \, created with UnRAVEl \, a python script for speculative latent composition., f 24;
#X text 98 122 ch4;
#X text 160 256 Last updated: 06.05.26, f 23;
#N canvas 179 204 641 589 (subpatch) 0;
#X array \$0-_1 64 float 0;
#A color 90;
#A width 1;
#X coords 0 3 64 -3 100 70 2 0 0;
#X restore 23 140 graph;
#N canvas 179 204 641 589 (subpatch) 0;
#X array \$0-__2 64 float 0;
#A color 900;
#A width 1;
#X coords 0 3 64 -3 100 70 1 0 0;
#X restore 23 140 graph;
#N canvas 179 204 641 589 (subpatch) 0;
#X array \$0-___3 64 float 0;
#A color 750;
#A width 1;
#X coords 0 3 64 -3 100 70 2 0 0;
#X restore 23 140 graph;
#N canvas 179 204 641 589 (subpatch) 0;
#X array \$0-0 64 float 0;
#A color 9;
#A width 1;
#X coords 0 3 64 -3 100 70 1 0 0;
#X restore 23 140 graph;
#N canvas 1085 264 265 409 vispres 0;
#X obj 14 15 loadbang;
#X obj 14 38 bng 19 250 50 0 empty empty empty 0 -10 0 12 #fcfcfc #000000 #000000;
#X obj 14 61 f \$0;
#X msg 14 84 \; \$1-switchinit 1;
#X msg 14 121 \; \$1-0 edit 0 \; \$1-0 color 9 \; \$1-0 bounds 0 3 64 -3, f 23;
#X msg 14 192 \; \$1-_1 edit 0 \; \$1-_1 color 90 \; \$1-_1 bounds 0 3 64 -3;
#X msg 14 263 \; \$1-__2 edit 0 \; \$1-__2 color 900 \; \$1-__2 bounds 0 3 64 -3;
#X msg 14 334 \; \$1-___3 edit 0 \; \$1-___3 color 750 \; \$1-___3 bounds 0 3 64 -3;
#X connect 0 0 1 0;
#X connect 1 0 2 0;
#X connect 2 0 3 0;
#X connect 2 0 4 0;
#X connect 2 0 7 0;
#X connect 2 0 6 0;
#X connect 2 0 5 0;
#X restore 16 255 pd vispres;
#X connect 2 0 6 0;
#X connect 3 0 1 0;
#X connect 7 0 8 0;
#X coords 0 -1 1 1 115 125 2 15 120;
