#N canvas 494 82 347 289 12;
#X obj 23 220 bng 18 250 50 0 \$0-sloadfile \$0-sloadfileinit Load 21 9 0 8 #00ff04 #000000 #000000;
#N canvas 486 195 393 297 sampleloader 0;
#X obj 18 39 openpanel;
#X obj 18 199 soundfiler, f 14;
#X obj 18 88 pack s f, f 11;
#X obj 18 264 s \$0-slength;
#X obj 92 39 loadbang;
#X obj 92 63 f \$0;
#X obj 113 264 s \$0-srate;
#X obj 256 14 loadbang;
#X obj 256 36 f \$0;
#X obj 18 14 inlet Open file panel;
#X msg 256 58 \; \$1-waver0 edit 0;
#X floatatom 18 221 5 0 0 0 - - - 0;
#X listbox 113 221 20 0 0 0 - - - 0;
#X obj 113 242 unpack f;
#N canvas 92 126 200 217 arrays 0;
#X obj 14 10 array define \$0-waver0;
#X obj 14 34 array define \$0-waver1;
#X obj 14 58 array define \$0-waver2;
#X obj 14 82 array define \$0-waver3;
#X obj 14 106 array define \$0-waver4;
#X obj 14 130 array define \$0-waver5;
#X obj 14 154 array define \$0-waver6;
#X obj 14 178 array define \$0-waver7;
#X restore 179 14 pd arrays;
#X msg 18 117 read -resize \$1 \$2-waver0 \$2-waver1 \$2-waver2 \$2-waver3 \$2-waver4 \$2-waver5 \$2-waver6 \$2-waver7, f 19;
#X connect 0 0 2 0;
#X connect 1 0 11 0;
#X connect 1 1 12 0;
#X connect 2 0 15 0;
#X connect 4 0 5 0;
#X connect 5 0 2 1;
#X connect 7 0 8 0;
#X connect 8 0 10 0;
#X connect 9 0 0 0;
#X connect 11 0 3 0;
#X connect 12 0 13 0;
#X connect 13 0 6 0;
#X connect 15 0 1 0;
#X restore 16 41 pd sampleloader;
#X f 17;
#N canvas 561 34 356 355 sampleplayer 0;
#X obj 12 320 outlet~;
#X obj 12 13 r \$0-srate;
#X obj 12 37 phasor~;
#X obj 12 84 *~;
#X obj 30 61 r \$0-slength;
#X obj 12 243 *~ 1;
#X obj 121 271 r \$0-switch;
#X obj 75 295 spigot, f 7;
#X obj 75 271 bang~;
#X obj 75 320 tabwrite~ \$0-0 \$0-_1 \$0-__2 \$0-___3;
#X obj 12 107 tabread4~ \$0-waver0 \$0-waver1 \$0-waver2 \$0-waver3 \$0-waver4 \$0-waver5 \$0-waver6 \$0-waver7, f 11;
#X text 137 296 Show only ch. 0-3 for now.;
#X connect 1 0 2 0;
#X connect 2 0 3 0;
#X connect 3 0 10 0;
#X connect 4 0 3 1;
#X connect 5 0 0 0;
#X connect 5 0 9 0;
#X connect 6 0 7 1;
#X connect 7 0 9 0;
#X connect 8 0 7 0;
#X connect 10 0 5 0;
#X coords 0 355 1 354 180 45 0;
#X restore 16 70 pd sampleplayer;
#X obj 16 17 r \$0-sloadfile;
#N canvas 179 204 641 589 (subpatch) 0;
#X array \$0-_1 64 float 0;
#A color 90;
#A width 1;
#X coords 0 1 63 -1 100 70 2 0 0;
#X restore 23 140 graph;
#X obj 73 220 tgl 18 0 \$0-switch \$0-switchinit Render 21 9 0 8 #fcfcfc #000000 #000000 0 1;
#N canvas 179 204 641 589 (subpatch) 0;
#X array \$0-__2 64 float 0;
#A color 900;
#A width 1;
#X coords 0 1 63 -1 100 70 1 0 0;
#X restore 23 140 graph;
#N canvas 179 204 641 589 (subpatch) 0;
#X array \$0-___3 64 float 0;
#A color 750;
#A width 1;
#X coords 0 1 63 -1 100 70 2 0 0;
#X restore 23 140 graph;
#N canvas 179 204 641 589 (subpatch) 0;
#X array \$0-0 64 float 0;
#A color 9;
#A width 1;
#X coords 0 1 63 -1 100 70 1 0 0;
#X restore 23 140 graph;
#X obj 16 94 outlet~;
#N canvas 1085 264 184 338 vispres 0;
#X obj 14 15 loadbang;
#X obj 14 38 bng 19 250 50 0 empty empty empty 0 -10 0 12 #fcfcfc #000000 #000000;
#X obj 14 61 f \$0;
#X msg 14 84 \; \$1-switchinit 1;
#X msg 14 121 \; \$1-0 edit 0 \; \$1-0 color 9 \;;
#X msg 14 172 \; \$1-_1 edit 0 \; \$1-_1 color 90 \;;
#X msg 14 223 \; \$1-__2 edit 0 \; \$1-__2 color 900 \;;
#X msg 14 274 \; \$1-___3 edit 0 \; \$1-___3 color 750 \;;
#X connect 0 0 1 0;
#X connect 1 0 2 0;
#X connect 2 0 3 0;
#X connect 2 0 4 0;
#X connect 2 0 7 0;
#X connect 2 0 5 0;
#X connect 2 0 6 0;
#X restore 16 255 pd vispres;
#X text 167 240 Author: Martin Heinze, f 22;
#X text 160 256 Last updated: 01.03.26, f 23;
#X obj 186 153 bng 19 250 50 0 empty empty empty 0 -10 0 12 #fcfcfc #000000 #000000;
#N canvas 411 449 351 89 source 0;
#X obj 7 7 inlet;
#X obj 7 55 pdcontrol;
#X msg 7 31 browse https://github.com/devstermarts/UnRAVEl;
#X connect 0 0 2 0;
#X connect 2 0 1 0;
#X restore 186 177 pd source;
#X text 210 154 <- read more;
#X text 153 16 ch8ns0n is a 8ch sampler that plays back latent signal songs at 21Hz \, created with UnRAVEl \, a python script for speculative latent composition., f 24;
#X text 98 122 ch8;
#X connect 2 0 9 0;
#X connect 3 0 1 0;
#X connect 13 0 14 0;
#X coords 0 -1 1 1 115 125 2 15 120;
