#N canvas 696 150 577 211 12;
#X obj 29 32 vsl 20 80 -3 3 0 0 \$0-sl1o \$0-sl1i empty 0 -9 0 12 #fcfcfc #000000 #000000 0 1;
#X obj 52 32 vsl 20 80 -3 3 0 0 \$0-sl2o \$0-sl2i empty 0 -9 0 12 #fcfcfc #000000 #000000 0 1;
#X obj 75 32 vsl 20 80 -3 3 0 0 \$0-sl3o \$0-sl3i empty 0 -9 0 12 #fcfcfc #000000 #000000 0 1;
#X obj 98 32 vsl 20 80 -3 3 0 0 \$0-sl4o \$0-sl4i empty 0 -9 0 12 #fcfcfc #000000 #000000 0 1;
#X obj 121 32 vsl 20 80 -3 3 0 0 \$0-sl5o \$0-sl5i empty 0 -9 0 12 #fcfcfc #000000 #000000 0 1;
#X obj 144 32 vsl 20 80 -3 3 0 0 \$0-sl6o \$0-sl6i empty 0 -9 0 12 #fcfcfc #000000 #000000 0 1;
#X obj 167 32 vsl 20 80 -3 3 0 0 \$0-sl7o \$0-sl7i empty 0 -9 0 12 #fcfcfc #000000 #000000 0 1;
#X obj 190 32 vsl 20 80 -3 3 0 0 \$0-sl8o \$0-sl8i empty 0 -9 0 12 #fcfcfc #000000 #000000 0 1;
#X obj 226 131 outlet~;
#X obj 194 125 bng 16 250 50 0 \$0-getter \$0-getterdummy p 6 8 0 8 #ffffff #606060 #000000;
#X obj 226 20 inlet;
#X obj 169 125 bng 16 250 50 0 \$0-rander \$0-randerdummy r 6 8 0 8 #000000 #ffffff #ffffff;
#X obj 148 125 bng 16 250 50 0 \$0-normer \$0-normerdummy n 6 8 0 8 #000000 #ffffff #ffffff;
#N canvas 312 61 705 695 array-setter 0;
#X obj 292 48 r \$0-rander;
#X obj 212 118 s \$0-sl1i;
#X obj 212 195 s \$0-sl2i;
#X obj 212 272 s \$0-sl3i;
#X obj 212 349 s \$0-sl4i;
#X obj 212 426 s \$0-sl5i;
#X obj 212 503 s \$0-sl6i;
#X obj 212 580 s \$0-sl7i;
#X obj 212 657 s \$0-sl8i;
#X obj 212 41 bng 19 250 50 0 empty \$0-normer empty 0 -10 0 12 #fcfcfc #000000 #000000;
#X msg 212 64 0, f 1;
#X obj 7 41 unpack f f f f f f f f;
#X obj 7 17 inlet;
#X obj 212 17 loadbang;
#X obj 292 71 expr ((random(-3000 \, 3000)*0.001)+(random(-3000 \, 3000)*0.001)+(random(-3000 \, 3000)*0.001)+(random(-3000 \, 3000)*0.001))/4;
#X obj 292 149 expr ((random(-3000 \, 3000)*0.001)+(random(-3000 \, 3000)*0.001)+(random(-3000 \, 3000)*0.001)+(random(-3000 \, 3000)*0.001))/4;
#X obj 292 226 expr ((random(-3000 \, 3000)*0.001)+(random(-3000 \, 3000)*0.001)+(random(-3000 \, 3000)*0.001)+(random(-3000 \, 3000)*0.001))/4;
#X obj 292 380 expr ((random(-3000 \, 3000)*0.001)+(random(-3000 \, 3000)*0.001)+(random(-3000 \, 3000)*0.001)+(random(-3000 \, 3000)*0.001))/4;
#X obj 292 303 expr ((random(-3000 \, 3000)*0.001)+(random(-3000 \, 3000)*0.001)+(random(-3000 \, 3000)*0.001)+(random(-3000 \, 3000)*0.001))/4;
#X obj 292 457 expr ((random(-3000 \, 3000)*0.001)+(random(-3000 \, 3000)*0.001)+(random(-3000 \, 3000)*0.001)+(random(-3000 \, 3000)*0.001))/4;
#X obj 292 534 expr ((random(-3000 \, 3000)*0.001)+(random(-3000 \, 3000)*0.001)+(random(-3000 \, 3000)*0.001)+(random(-3000 \, 3000)*0.001))/4;
#X obj 292 611 expr ((random(-3000 \, 3000)*0.001)+(random(-3000 \, 3000)*0.001)+(random(-3000 \, 3000)*0.001)+(random(-3000 \, 3000)*0.001))/4;
#X connect 0 0 14 0;
#X connect 0 0 15 0;
#X connect 0 0 16 0;
#X connect 0 0 17 0;
#X connect 0 0 18 0;
#X connect 0 0 19 0;
#X connect 0 0 20 0;
#X connect 0 0 21 0;
#X connect 9 0 10 0;
#X connect 10 0 1 0;
#X connect 10 0 8 0;
#X connect 10 0 7 0;
#X connect 10 0 6 0;
#X connect 10 0 5 0;
#X connect 10 0 4 0;
#X connect 10 0 3 0;
#X connect 10 0 2 0;
#X connect 11 0 1 0;
#X connect 11 1 2 0;
#X connect 11 2 3 0;
#X connect 11 3 4 0;
#X connect 11 4 5 0;
#X connect 11 5 6 0;
#X connect 11 6 7 0;
#X connect 11 7 8 0;
#X connect 12 0 11 0;
#X connect 13 0 9 0;
#X connect 14 0 1 0;
#X connect 15 0 2 0;
#X connect 16 0 3 0;
#X connect 17 0 5 0;
#X connect 18 0 4 0;
#X connect 19 0 6 0;
#X connect 20 0 7 0;
#X connect 21 0 8 0;
#X restore 226 44 pd array-setter;
#N canvas 362 492 592 113 sigcollect 0;
#X obj 11 11 r \$0-sl1o;
#X obj 82 11 r \$0-sl2o;
#X obj 154 11 r \$0-sl3o;
#X obj 225 11 r \$0-sl4o;
#X obj 297 11 r \$0-sl5o;
#X obj 368 11 r \$0-sl6o;
#X obj 440 11 r \$0-sl7o;
#X obj 512 11 r \$0-sl8o;
#X obj 11 35 lop~ 1;
#X obj 82 35 lop~ 1;
#X obj 154 35 lop~ 1;
#X obj 225 35 lop~ 1;
#X obj 297 35 lop~ 1;
#X obj 368 35 lop~ 1;
#X obj 440 35 lop~ 1;
#X obj 512 35 lop~ 1;
#X obj 11 59 snake~ in 8, f 72;
#X obj 11 83 outlet~;
#X connect 0 0 8 0;
#X connect 1 0 9 0;
#X connect 2 0 10 0;
#X connect 3 0 11 0;
#X connect 4 0 12 0;
#X connect 5 0 13 0;
#X connect 6 0 14 0;
#X connect 7 0 15 0;
#X connect 8 0 16 0;
#X connect 9 0 16 1;
#X connect 10 0 16 2;
#X connect 11 0 16 3;
#X connect 12 0 16 4;
#X connect 13 0 16 5;
#X connect 14 0 16 6;
#X connect 15 0 16 7;
#X connect 16 0 17 0;
#X restore 226 107 pd sigcollect;
#X text 455 162 Martin Heinze;
#N canvas 216 84 716 432 bank-select 0;
#X obj 17 35 array define \$0-bank1 8;
#X obj 17 196 array get \$0-bank1;
#X obj 17 220 print \$0-lateefah-bank1;
#X obj 17 124 r \$0-getter;
#X obj 17 10 array define \$0-bank0 8;
#X obj 17 60 array define \$0-bank2 8;
#X obj 17 244 array get \$0-bank2;
#X obj 17 148 array get \$0-bank0;
#X obj 17 172 print \$0-lateefah-bank0;
#X obj 17 268 print \$0-lateefah-bank2;
#X obj 17 85 array define \$0-bank3 8;
#X obj 17 292 array get \$0-bank3;
#X obj 17 316 print \$0-lateefah-bank3;
#X obj 479 10 r \$0-banksel;
#X obj 539 53 makefilename \$0-bank%i;
#X obj 402 130 r \$0-sl1o;
#X obj 402 153 r \$0-sl2o;
#X obj 402 177 r \$0-sl3o;
#X obj 402 200 r \$0-sl4o;
#X obj 402 223 r \$0-sl5o;
#X obj 402 246 r \$0-sl6o;
#X obj 402 269 r \$0-sl7o;
#X obj 402 292 r \$0-sl8o;
#X obj 479 78 array get;
#X obj 479 103 unpack f f f f f f f f;
#X obj 479 130 s \$0-sl1i;
#X obj 479 153 s \$0-sl2i;
#X obj 479 177 s \$0-sl3i;
#X obj 479 200 s \$0-sl4i;
#X obj 479 223 s \$0-sl5i;
#X obj 479 246 s \$0-sl6i;
#X obj 479 269 s \$0-sl7i;
#X obj 479 292 s \$0-sl8i;
#X obj 272 346 r \$0-banksel;
#X obj 272 370 makefilename \$0-bank%i;
#X obj 212 394 array set;
#X obj 212 340 list;
#X obj 212 278 r \$0-save;
#X obj 265 321 pack f f f f f f f f;
#X obj 212 302 t b b;
#X text 287 393 <- store current values to selected bank;
#X text 240 77 load values from selected bank ->;
#X text 103 123 <- print all banks;
#X obj 479 34 t b f;
#X connect 1 0 2 0;
#X connect 3 0 7 0;
#X connect 3 0 1 0;
#X connect 3 0 11 0;
#X connect 3 0 6 0;
#X connect 6 0 9 0;
#X connect 7 0 8 0;
#X connect 11 0 12 0;
#X connect 13 0 43 0;
#X connect 14 0 23 2;
#X connect 15 0 38 0;
#X connect 16 0 38 1;
#X connect 17 0 38 2;
#X connect 18 0 38 3;
#X connect 19 0 38 4;
#X connect 20 0 38 5;
#X connect 21 0 38 6;
#X connect 22 0 38 7;
#X connect 23 0 24 0;
#X connect 24 0 25 0;
#X connect 24 1 26 0;
#X connect 24 2 27 0;
#X connect 24 3 28 0;
#X connect 24 4 29 0;
#X connect 24 5 30 0;
#X connect 24 6 31 0;
#X connect 24 7 32 0;
#X connect 33 0 34 0;
#X connect 34 0 35 2;
#X connect 36 0 35 0;
#X connect 37 0 39 0;
#X connect 38 0 36 1;
#X connect 39 0 36 0;
#X connect 39 1 38 0;
#X connect 43 0 23 0;
#X connect 43 1 14 0;
#X restore 226 73 pd bank-select;
#X obj 29 125 hradio 16 1 0 4 \$0-banksel \$0-bankseldummy Banks 68 8 0 8 #fcfcfc #000000 #000000 0;
#X obj 127 125 bng 16 250 50 0 \$0-save \$0-savedummy s 6 8 0 8 #000000 #ffffff #ffffff;
#X text 343 70 lateefah abstraction can hold up to 4 presets of each 8 signal value streams \, that can offset latent inputs of nn~. The outlet is multichannel., f 29;
#X obj 346 20 inlet;
#X obj 346 44 s \$0-bankseldummy;
#X text 476 177 14.03.2025;
#X obj 409 20 loadbang;
#X connect 10 0 13 0;
#X connect 14 0 8 0;
#X connect 20 0 21 0;
#X connect 23 0 21 0;
#X coords 0 -1 1 1 200 130 2 20 20;
