#N canvas 656 282 491 140 12;
#X obj 26 29 vsl 20 80 -3 3 0 0 \$0-sl1o \$0-sl1i empty 0 -9 0 12 #fcfcfc #000000 #000000 0 1;
#X obj 46 29 vsl 20 80 -3 3 0 0 \$0-sl2o \$0-sl2i empty 0 -9 0 12 #fcfcfc #000000 #000000 0 1;
#X obj 66 29 vsl 20 80 -3 3 0 0 \$0-sl3o \$0-sl3i empty 0 -9 0 12 #fcfcfc #000000 #000000 0 1;
#X obj 86 29 vsl 20 80 -3 3 0 0 \$0-sl4o \$0-sl4i empty 0 -9 0 12 #fcfcfc #000000 #000000 0 1;
#X obj 106 29 vsl 20 80 -3 3 0 0 \$0-sl5o \$0-sl5i empty 0 -9 0 12 #fcfcfc #000000 #000000 0 1;
#X obj 126 29 vsl 20 80 -3 3 0 0 \$0-sl6o \$0-sl6i empty 0 -9 0 12 #fcfcfc #000000 #000000 0 1;
#X obj 146 29 vsl 20 80 -3 3 0 0 \$0-sl7o \$0-sl7i empty 0 -9 0 12 #fcfcfc #000000 #000000 0 1;
#X obj 166 29 vsl 20 80 -3 3 0 0 \$0-sl8o \$0-sl8i empty 0 -9 0 12 #fcfcfc #000000 #000000 0 1;
#X obj 226 101 outlet~;
#N canvas 733 120 177 560 array-bank 0;
#X obj 7 49 r \$0-sl1o;
#X obj 7 102 r \$0-sl2o;
#X obj 7 156 r \$0-sl3o;
#X obj 7 209 r \$0-sl4o;
#X obj 7 262 r \$0-sl5o;
#X obj 7 315 r \$0-sl6o;
#X obj 7 368 r \$0-sl7o;
#X obj 7 421 r \$0-sl8o;
#X obj 7 10 array define \$0-bank 8;
#X obj 7 508 array get \$0-bank;
#X obj 7 484 r \$0-getter;
#X obj 7 73 array set \$0-bank 0;
#X obj 7 127 array set \$0-bank 1;
#X obj 7 180 array set \$0-bank 2;
#X obj 7 233 array set \$0-bank 3;
#X obj 7 286 array set \$0-bank 4;
#X obj 7 339 array set \$0-bank 5;
#X obj 7 392 array set \$0-bank 6;
#X obj 7 445 array set \$0-bank 7;
#X obj 7 532 print \$0-lateefah;
#X connect 0 0 11 0;
#X connect 1 0 12 0;
#X connect 2 0 13 0;
#X connect 3 0 14 0;
#X connect 4 0 15 0;
#X connect 5 0 16 0;
#X connect 6 0 17 0;
#X connect 7 0 18 0;
#X connect 9 0 19 0;
#X connect 10 0 9 0;
#X restore 275 20 pd array-bank;
#X obj 191 96 bng 16 250 50 0 \$0-getter \$0-getterdummy p 6 8 0 8 #ffffff #606060 #000000;
#X obj 226 20 inlet;
#X obj 191 27 bng 16 250 50 0 \$0-rander \$0-randerdummy r 6 8 0 8 #000000 #ffffff #ffffff;
#X obj 191 46 bng 16 250 50 0 \$0-normer \$0-normerdummy n 6 8 0 8 #000000 #ffffff #ffffff;
#N canvas 312 61 569 695 array-setter 0;
#X obj 312 41 r \$0-rander;
#X obj 312 64 expr (random(-3000 \, 3000)*0.001);
#X obj 212 118 s \$0-sl1i;
#X obj 312 142 expr (random(-3000 \, 3000)*0.001);
#X obj 212 195 s \$0-sl2i;
#X obj 312 219 expr (random(-3000 \, 3000)*0.001);
#X obj 312 296 expr (random(-3000 \, 3000)*0.001);
#X obj 212 272 s \$0-sl3i;
#X obj 212 349 s \$0-sl4i;
#X obj 312 373 expr (random(-3000 \, 3000)*0.001);
#X obj 312 450 expr (random(-3000 \, 3000)*0.001);
#X obj 312 527 expr (random(-3000 \, 3000)*0.001);
#X obj 312 604 expr (random(-3000 \, 3000)*0.001);
#X obj 212 426 s \$0-sl5i;
#X obj 212 503 s \$0-sl6i;
#X obj 212 580 s \$0-sl7i;
#X obj 212 657 s \$0-sl8i;
#X obj 212 41 bng 19 250 50 0 empty \$0-normer empty 0 -10 0 12 #fcfcfc #000000 #000000;
#X msg 212 64 0, f 1;
#X obj 7 41 unpack f f f f f f f f;
#X obj 7 17 inlet;
#X obj 212 17 loadbang;
#X connect 0 0 1 0;
#X connect 0 0 3 0;
#X connect 0 0 12 0;
#X connect 0 0 11 0;
#X connect 0 0 10 0;
#X connect 0 0 9 0;
#X connect 0 0 6 0;
#X connect 0 0 5 0;
#X connect 1 0 2 0;
#X connect 3 0 4 0;
#X connect 5 0 7 0;
#X connect 6 0 8 0;
#X connect 9 0 13 0;
#X connect 10 0 14 0;
#X connect 11 0 15 0;
#X connect 12 0 16 0;
#X connect 17 0 18 0;
#X connect 18 0 2 0;
#X connect 18 0 16 0;
#X connect 18 0 15 0;
#X connect 18 0 14 0;
#X connect 18 0 13 0;
#X connect 18 0 8 0;
#X connect 18 0 7 0;
#X connect 18 0 4 0;
#X connect 19 0 2 0;
#X connect 19 1 4 0;
#X connect 19 2 7 0;
#X connect 19 3 8 0;
#X connect 19 4 13 0;
#X connect 19 5 14 0;
#X connect 19 6 15 0;
#X connect 19 7 16 0;
#X connect 20 0 19 0;
#X connect 21 0 17 0;
#X restore 226 44 pd array-setter;
#N canvas 362 492 592 113 sigcollect 0;
#X obj 11 11 r \$0-sl1o;
#X obj 82 11 r \$0-sl2o;
#X obj 154 11 r \$0-sl3o;
#X obj 225 11 r \$0-sl4o;
#X obj 297 11 r \$0-sl5o;
#X obj 368 11 r \$0-sl6o;
#X obj 440 11 r \$0-sl7o;
#X obj 512 11 r \$0-sl8o;
#X obj 11 35 lop~ 1;
#X obj 82 35 lop~ 1;
#X obj 154 35 lop~ 1;
#X obj 225 35 lop~ 1;
#X obj 297 35 lop~ 1;
#X obj 368 35 lop~ 1;
#X obj 440 35 lop~ 1;
#X obj 512 35 lop~ 1;
#X obj 11 59 snake~ in 8, f 72;
#X obj 11 83 outlet~;
#X connect 0 0 8 0;
#X connect 1 0 9 0;
#X connect 2 0 10 0;
#X connect 3 0 11 0;
#X connect 4 0 12 0;
#X connect 5 0 13 0;
#X connect 6 0 14 0;
#X connect 7 0 15 0;
#X connect 8 0 16 0;
#X connect 9 0 16 1;
#X connect 10 0 16 2;
#X connect 11 0 16 3;
#X connect 12 0 16 4;
#X connect 13 0 16 5;
#X connect 14 0 16 6;
#X connect 15 0 16 7;
#X connect 16 0 17 0;
#X restore 226 77 pd sigcollect;
#X text 364 85 Martin Heinze;
#X text 385 100 09.03.2025;
#X connect 11 0 14 0;
#X connect 15 0 8 0;
#X coords 0 -1 1 1 200 100 2 20 20;
