#N canvas 121 159 598 199 12;
#X obj 29 32 vsl 15 80 -1 1 0 0 \$0-sl1o \$0-sl1i empty 0 -9 0 12 #fcfcfc #000000 #000000 0 1;
#X obj 47 32 vsl 15 80 -1 1 0 0 \$0-sl2o \$0-sl2i empty 0 -9 0 12 #fcfcfc #000000 #000000 0 1;
#X obj 65 32 vsl 15 80 -1 1 0 0 \$0-sl3o \$0-sl3i empty 0 -9 0 12 #fcfcfc #000000 #000000 0 1;
#X obj 83 32 vsl 15 80 -1 1 0 0 \$0-sl4o \$0-sl4i empty 0 -9 0 12 #fcfcfc #000000 #000000 0 1;
#X obj 101 32 vsl 15 80 -1 1 0 0 \$0-sl5o \$0-sl5i empty 0 -9 0 12 #fcfcfc #000000 #000000 0 1;
#X obj 119 32 vsl 15 80 -1 1 0 0 \$0-sl6o \$0-sl6i empty 0 -9 0 12 #fcfcfc #000000 #000000 0 1;
#X obj 350 67 outlet~;
#X obj 139 99 bng 16 250 50 0 \$0-getter \$0-getterdummy p 6 8 0 8 #ffffff #606060 #000000;
#X obj 236 20 inlet;
#X obj 139 76 bng 16 250 50 0 \$0-rander \$0-randerdummy r 6 8 0 8 #000000 #ffffff #ffffff;
#X obj 139 53 bng 16 250 50 0 \$0-normer \$0-normerdummy n 6 8 0 8 #000000 #ffffff #ffffff;
#N canvas 312 61 662 546 array-setter 0;
#X obj 242 41 r \$0-rander;
#X obj 162 118 s \$0-sl1i;
#X obj 162 195 s \$0-sl2i;
#X obj 162 272 s \$0-sl3i;
#X obj 162 349 s \$0-sl4i;
#X obj 162 426 s \$0-sl5i;
#X obj 162 503 s \$0-sl6i;
#X obj 162 41 bng 19 250 50 0 empty \$0-normer empty 0 -10 0 12 #fcfcfc #000000 #000000;
#X msg 162 64 0, f 1;
#X obj 17 17 inlet;
#X obj 162 17 loadbang;
#X obj 242 71 expr ((random(-1000 \, 1000)*0.001)+(random(-1000 \, 1000)*0.001)+(random(-1000 \, 1000)*0.001)+(random(-1000 \, 1000)*0.001))/4;
#X obj 242 149 expr ((random(-1000 \, 1000)*0.001)+(random(-1000 \, 1000)*0.001)+(random(-1000 \, 1000)*0.001)+(random(-1000 \, 1000)*0.001))/4;
#X obj 242 226 expr ((random(-1000 \, 1000)*0.001)+(random(-1000 \, 1000)*0.001)+(random(-1000 \, 1000)*0.001)+(random(-1000 \, 1000)*0.001))/4;
#X obj 242 303 expr ((random(-1000 \, 1000)*0.001)+(random(-1000 \, 1000)*0.001)+(random(-1000 \, 1000)*0.001)+(random(-1000 \, 1000)*0.001))/4;
#X obj 242 380 expr ((random(-1000 \, 1000)*0.001)+(random(-1000 \, 1000)*0.001)+(random(-1000 \, 1000)*0.001)+(random(-1000 \, 1000)*0.001))/4;
#X obj 242 457 expr ((random(-1000 \, 1000)*0.001)+(random(-1000 \, 1000)*0.001)+(random(-1000 \, 1000)*0.001)+(random(-1000 \, 1000)*0.001))/4;
#X obj 17 41 unpack f f f f f f;
#X connect 0 0 11 0;
#X connect 0 0 12 0;
#X connect 0 0 13 0;
#X connect 0 0 14 0;
#X connect 0 0 15 0;
#X connect 0 0 16 0;
#X connect 7 0 8 0;
#X connect 8 0 1 0;
#X connect 8 0 6 0;
#X connect 8 0 5 0;
#X connect 8 0 4 0;
#X connect 8 0 3 0;
#X connect 8 0 2 0;
#X connect 9 0 17 0;
#X connect 10 0 7 0;
#X connect 11 0 1 0;
#X connect 12 0 2 0;
#X connect 13 0 3 0;
#X connect 14 0 4 0;
#X connect 15 0 5 0;
#X connect 16 0 6 0;
#X connect 17 0 1 0;
#X connect 17 1 2 0;
#X connect 17 2 3 0;
#X connect 17 3 4 0;
#X connect 17 4 5 0;
#X connect 17 5 6 0;
#X restore 236 44 pd array-setter;
#N canvas 162 385 451 188 sigcollect 0;
#X obj 11 11 r \$0-sl1o;
#X obj 83 11 r \$0-sl2o;
#X obj 155 11 r \$0-sl3o;
#X obj 227 11 r \$0-sl4o;
#X obj 299 11 r \$0-sl5o;
#X obj 372 11 r \$0-sl6o;
#X obj 11 157 outlet~;
#X obj 11 35 lop~ 10;
#X obj 83 35 lop~ 10;
#X obj 155 35 lop~ 10;
#X obj 227 35 lop~ 10;
#X obj 299 35 lop~ 10;
#X obj 372 35 lop~ 10;
#X obj 11 133 *~;
#X obj 29 85 r \$0-rval;
#X obj 29 109 lop~ 10;
#X obj 110 85 loadbang;
#X msg 110 109 1, f 1;
#X obj 110 133 s \$0-rvalinit;
#X obj 11 59 snake~ in 6, f 52;
#X connect 0 0 7 0;
#X connect 1 0 8 0;
#X connect 2 0 9 0;
#X connect 3 0 10 0;
#X connect 4 0 11 0;
#X connect 5 0 12 0;
#X connect 7 0 19 0;
#X connect 8 0 19 1;
#X connect 9 0 19 2;
#X connect 10 0 19 3;
#X connect 11 0 19 4;
#X connect 12 0 19 5;
#X connect 13 0 6 0;
#X connect 14 0 15 0;
#X connect 15 0 13 1;
#X connect 16 0 17 0;
#X connect 17 0 18 0;
#X connect 19 0 13 0;
#X restore 350 44 pd sigcollect;
#X text 485 139 Martin Heinze;
#N canvas 138 338 1007 453 bank-select 0;
#X obj 17 196 array get \$0-bank1;
#X obj 17 220 print \$0-lateefah-bank1;
#X obj 17 124 r \$0-getter;
#X obj 17 244 array get \$0-bank2;
#X obj 17 148 array get \$0-bank0;
#X obj 17 172 print \$0-lateefah-bank0;
#X obj 17 268 print \$0-lateefah-bank2;
#X obj 17 292 array get \$0-bank3;
#X obj 17 316 print \$0-lateefah-bank3;
#X obj 479 10 r \$0-banksel;
#X obj 539 53 makefilename \$0-bank%i;
#X obj 402 130 r \$0-sl1o;
#X obj 402 153 r \$0-sl2o;
#X obj 402 177 r \$0-sl3o;
#X obj 402 200 r \$0-sl4o;
#X obj 402 223 r \$0-sl5o;
#X obj 402 246 r \$0-sl6o;
#X obj 479 78 array get;
#X obj 304 346 r \$0-banksel;
#X obj 304 370 makefilename \$0-bank%i;
#X obj 244 394 array set;
#X obj 212 340 list;
#X obj 212 278 r \$0-save;
#X obj 212 302 t b b;
#X text 103 123 <- print all banks;
#X obj 479 34 t b f;
#X obj 479 174 line;
#X obj 479 198 s \$0-sl1i;
#X obj 558 198 s \$0-sl2i;
#X obj 637 198 s \$0-sl3i;
#X obj 716 198 s \$0-sl4i;
#X obj 795 198 s \$0-sl5i;
#X obj 875 198 s \$0-sl6i;
#X obj 532 127 r \$0-ramp;
#X obj 479 150 pack f f;
#X obj 558 174 line;
#X obj 611 127 r \$0-ramp;
#X obj 558 150 pack f f;
#X obj 637 174 line;
#X obj 691 127 r \$0-ramp;
#X obj 637 150 pack f f;
#X obj 716 174 line;
#X obj 770 127 r \$0-ramp;
#X obj 716 150 pack f f;
#X obj 795 174 line;
#X obj 850 127 r \$0-ramp;
#X obj 795 150 pack f f;
#X obj 875 174 line;
#X obj 929 127 r \$0-ramp;
#X obj 875 150 pack f f;
#X obj 17 346 loadbang;
#X obj 17 394 s \$0-rampin;
#X msg 17 370 100;
#X msg 479 409 set \$1;
#X msg 558 409 set \$1;
#X msg 637 409 set \$1;
#X msg 716 409 set \$1;
#X obj 212 364 t a a;
#X msg 795 409 set \$1;
#X msg 875 409 set \$1;
#X text 319 393 <- store to bank;
#X text 350 77 load from bank ->;
#X obj 265 321 pack f f f f f f;
#X obj 17 10 array define \$0-bank0 6;
#X obj 17 35 array define \$0-bank1 6;
#X obj 17 60 array define \$0-bank2 6;
#X obj 17 85 array define \$0-bank3 6;
#X obj 479 102 unpack f f f f f f, f 57;
#X obj 479 383 unpack f f f f f f, f 57;
#X connect 0 0 1 0;
#X connect 2 0 4 0;
#X connect 2 0 0 0;
#X connect 2 0 7 0;
#X connect 2 0 3 0;
#X connect 3 0 6 0;
#X connect 4 0 5 0;
#X connect 7 0 8 0;
#X connect 9 0 25 0;
#X connect 10 0 17 2;
#X connect 11 0 62 0;
#X connect 12 0 62 1;
#X connect 13 0 62 2;
#X connect 14 0 62 3;
#X connect 15 0 62 4;
#X connect 16 0 62 5;
#X connect 17 0 67 0;
#X connect 18 0 19 0;
#X connect 19 0 20 2;
#X connect 21 0 57 0;
#X connect 22 0 23 0;
#X connect 23 0 21 0;
#X connect 23 1 62 0;
#X connect 25 0 17 0;
#X connect 25 1 10 0;
#X connect 26 0 27 0;
#X connect 33 0 34 1;
#X connect 34 0 26 0;
#X connect 35 0 28 0;
#X connect 36 0 37 1;
#X connect 37 0 35 0;
#X connect 38 0 29 0;
#X connect 39 0 40 1;
#X connect 40 0 38 0;
#X connect 41 0 30 0;
#X connect 42 0 43 1;
#X connect 43 0 41 0;
#X connect 44 0 31 0;
#X connect 45 0 46 1;
#X connect 46 0 44 0;
#X connect 47 0 32 0;
#X connect 48 0 49 1;
#X connect 49 0 47 0;
#X connect 50 0 52 0;
#X connect 52 0 51 0;
#X connect 53 0 26 0;
#X connect 54 0 35 0;
#X connect 55 0 38 0;
#X connect 56 0 41 0;
#X connect 57 0 68 0;
#X connect 57 1 20 0;
#X connect 58 0 44 0;
#X connect 59 0 47 0;
#X connect 62 0 21 1;
#X connect 67 0 34 0;
#X connect 67 1 37 0;
#X connect 67 2 40 0;
#X connect 67 3 43 0;
#X connect 67 4 46 0;
#X connect 67 5 49 0;
#X connect 68 0 53 0;
#X connect 68 1 54 0;
#X connect 68 2 55 0;
#X connect 68 3 56 0;
#X connect 68 4 58 0;
#X connect 68 5 59 0;
#X restore 236 67 pd bank-select;
#X obj 29 125 hradio 16 1 0 4 \$0-banksel \$0-bankseldummy Banks 68 8 0 10 #fcfcfc #000000 #000000 0;
#X obj 139 30 bng 16 250 50 0 \$0-save \$0-savedummy s 6 8 0 8 #000000 #ffffff #ffffff;
#X obj 450 20 inlet;
#X obj 450 44 s \$0-bankseldummy;
#X obj 513 20 loadbang;
#X floatatom 132 126 6 20 10000 1 Ramp \$0-rampin \$0-ramp 10;
#X obj 160 32 vsl 15 80 1 10 0 0 \$0-rval \$0-rvalinit empty 0 -9 0 12 #ffe3c6 #000000 #000000 0 1;
#X text 506 154 14.04.2025;
#X text 233 91 lateefah_mid abstraction can hold up to 4 presets of each 6 signal value streams \, that can offset latent inputs of nn~. The outlet is multichannel., f 49;
#X connect 8 0 11 0;
#X connect 12 0 6 0;
#X connect 17 0 18 0;
#X connect 19 0 18 0;
#X coords 0 -1 1 1 180 130 2 20 20;
