#N canvas 28 97 515 235 12;
#X obj 266 68 outlet~;
#X obj 153 20 inlet;
#N canvas 312 61 606 396 array-setter 0;
#X obj 202 48 r \$0-rander;
#X obj 122 118 s \$0-sl1i;
#X obj 122 195 s \$0-sl2i;
#X obj 122 272 s \$0-sl3i;
#X obj 122 349 s \$0-sl4i;
#X obj 122 41 bng 19 250 50 0 empty \$0-normer empty 0 -10 0 12 #fcfcfc #000000 #000000;
#X msg 122 64 0, f 1;
#X obj 7 17 inlet;
#X obj 122 17 loadbang;
#X obj 7 41 unpack f f f f;
#X obj 202 71 expr ((random(-1000 \, 1000)*0.001)+(random(-1000 \, 1000)*0.001)+(random(-1000 \, 1000)*0.001)+(random(-1000 \, 1000)*0.001))/4;
#X obj 202 149 expr ((random(-1000 \, 1000)*0.001)+(random(-1000 \, 1000)*0.001)+(random(-1000 \, 1000)*0.001)+(random(-1000 \, 1000)*0.001))/4;
#X obj 202 226 expr ((random(-1000 \, 1000)*0.001)+(random(-1000 \, 1000)*0.001)+(random(-1000 \, 1000)*0.001)+(random(-1000 \, 1000)*0.001))/4;
#X obj 202 303 expr ((random(-1000 \, 1000)*0.001)+(random(-1000 \, 1000)*0.001)+(random(-1000 \, 1000)*0.001)+(random(-1000 \, 1000)*0.001))/4;
#X connect 0 0 10 0;
#X connect 0 0 11 0;
#X connect 0 0 12 0;
#X connect 0 0 13 0;
#X connect 5 0 6 0;
#X connect 6 0 1 0;
#X connect 6 0 4 0;
#X connect 6 0 3 0;
#X connect 6 0 2 0;
#X connect 7 0 9 0;
#X connect 8 0 5 0;
#X connect 9 0 1 0;
#X connect 9 1 2 0;
#X connect 9 2 3 0;
#X connect 9 3 4 0;
#X connect 10 0 1 0;
#X connect 11 0 2 0;
#X connect 12 0 3 0;
#X connect 13 0 4 0;
#X restore 153 92 pd array-setter;
#N canvas 82 357 403 322 sigcollect 0;
#X obj 11 11 r \$0-sl1o;
#X obj 91 11 r \$0-sl2o;
#X obj 172 11 r \$0-sl3o;
#X obj 253 11 r \$0-sl4o;
#X obj 11 290 outlet~;
#X obj 11 192 snake~ in 4, f 35;
#X obj 11 35 lop~ 10;
#X obj 91 35 lop~ 10;
#X obj 172 35 lop~ 10;
#X obj 253 35 lop~ 10;
#X obj 11 266 *~;
#X obj 29 218 r \$0-rval;
#X obj 29 242 lop~ 10;
#X obj 110 218 loadbang;
#X msg 110 242 1, f 1;
#X obj 110 266 s \$0-rvalinit;
#X obj 29 60 inlet~;
#X obj 29 84 snake~ out 4, f 35;
#X obj 11 108 +~;
#X obj 91 108 +~;
#X obj 172 108 +~;
#X obj 253 108 +~;
#X obj 17 137 snapshot~;
#X obj 17 161 s \$0-sl1id;
#X obj 97 137 snapshot~;
#X obj 97 161 s \$0-sl2id;
#X obj 178 137 snapshot~;
#X obj 259 137 snapshot~;
#X obj 178 161 s \$0-sl3id;
#X obj 259 161 s \$0-sl4id;
#X obj 332 94 loadbang;
#X obj 332 118 metro 20;
#X connect 0 0 6 0;
#X connect 1 0 7 0;
#X connect 2 0 8 0;
#X connect 3 0 9 0;
#X connect 5 0 10 0;
#X connect 6 0 18 0;
#X connect 7 0 19 0;
#X connect 8 0 20 0;
#X connect 9 0 21 0;
#X connect 10 0 4 0;
#X connect 11 0 12 0;
#X connect 12 0 10 1;
#X connect 13 0 14 0;
#X connect 14 0 15 0;
#X connect 16 0 17 0;
#X connect 17 0 18 1;
#X connect 17 1 19 1;
#X connect 17 2 20 1;
#X connect 17 3 21 1;
#X connect 18 0 5 0;
#X connect 18 0 22 0;
#X connect 19 0 5 1;
#X connect 19 0 24 0;
#X connect 20 0 5 2;
#X connect 20 0 26 0;
#X connect 21 0 5 3;
#X connect 21 0 27 0;
#X connect 22 0 23 0;
#X connect 24 0 25 0;
#X connect 26 0 28 0;
#X connect 27 0 29 0;
#X connect 30 0 31 0;
#X connect 31 0 27 0;
#X connect 31 0 26 0;
#X connect 31 0 24 0;
#X connect 31 0 22 0;
#X restore 266 44 pd sigcollect;
#N canvas 85 83 857 429 bank-select 0;
#X obj 17 196 array get \$0-bank1;
#X obj 17 220 print \$0-lateefah-bank1;
#X obj 17 124 r \$0-getter;
#X obj 17 244 array get \$0-bank2;
#X obj 17 148 array get \$0-bank0;
#X obj 17 172 print \$0-lateefah-bank0;
#X obj 17 268 print \$0-lateefah-bank2;
#X obj 17 292 array get \$0-bank3;
#X obj 17 316 print \$0-lateefah-bank3;
#X obj 479 10 r \$0-banksel;
#X obj 539 53 makefilename \$0-bank%i;
#X obj 352 130 r \$0-sl1o;
#X obj 352 153 r \$0-sl2o;
#X obj 352 177 r \$0-sl3o;
#X obj 352 200 r \$0-sl4o;
#X obj 479 78 array get;
#X obj 310 253 r \$0-banksel;
#X obj 310 277 makefilename \$0-bank%i;
#X obj 250 301 array set;
#X obj 218 247 list;
#X obj 218 185 r \$0-save;
#X obj 218 209 t b b;
#X text 103 123 <- print all banks;
#X obj 479 34 t b f;
#X obj 479 103 unpack f f f f, f 34;
#X obj 271 228 pack f f f f;
#X obj 17 10 array define \$0-bank0 4;
#X obj 17 35 array define \$0-bank1 4;
#X obj 17 60 array define \$0-bank2 4;
#X obj 17 85 array define \$0-bank3 4;
#X obj 479 174 line;
#X obj 479 198 s \$0-sl1i;
#X obj 557 198 s \$0-sl2i;
#X obj 635 198 s \$0-sl3i;
#X obj 714 198 s \$0-sl4i;
#X obj 532 127 r \$0-ramp;
#X obj 479 150 pack f f;
#X obj 557 174 line;
#X obj 610 127 r \$0-ramp;
#X obj 557 150 pack f f;
#X obj 635 174 line;
#X obj 688 127 r \$0-ramp;
#X obj 635 150 pack f f;
#X obj 714 174 line;
#X obj 767 127 r \$0-ramp;
#X obj 714 150 pack f f;
#N canvas 832 476 163 162 bin 0;
#X obj 12 40 s \$0-sl1i;
#X obj 12 63 s \$0-sl2i;
#X obj 12 87 s \$0-sl3i;
#X obj 12 110 s \$0-sl4i;
#X obj 12 13 unpack f f f f;
#X text 89 109 Backup;
#X connect 4 0 0 0;
#X connect 4 1 1 0;
#X connect 4 2 2 0;
#X connect 4 3 3 0;
#X restore 728 103 pd bin;
#X obj 17 346 loadbang;
#X obj 17 394 s \$0-rampin;
#X msg 17 370 100;
#X msg 479 319 set \$1;
#X msg 557 319 set \$1;
#X msg 635 319 set \$1;
#X msg 714 319 set \$1;
#X obj 218 274 t a a;
#X obj 479 293 unpack f f f f, f 34;
#X text 325 300 <- store to bank;
#X text 350 77 load from bank ->;
#X connect 0 0 1 0;
#X connect 2 0 4 0;
#X connect 2 0 0 0;
#X connect 2 0 7 0;
#X connect 2 0 3 0;
#X connect 3 0 6 0;
#X connect 4 0 5 0;
#X connect 7 0 8 0;
#X connect 9 0 23 0;
#X connect 10 0 15 2;
#X connect 11 0 25 0;
#X connect 12 0 25 1;
#X connect 13 0 25 2;
#X connect 14 0 25 3;
#X connect 15 0 24 0;
#X connect 16 0 17 0;
#X connect 17 0 18 2;
#X connect 19 0 54 0;
#X connect 20 0 21 0;
#X connect 21 0 19 0;
#X connect 21 1 25 0;
#X connect 23 0 15 0;
#X connect 23 1 10 0;
#X connect 24 0 36 0;
#X connect 24 1 39 0;
#X connect 24 2 42 0;
#X connect 24 3 45 0;
#X connect 25 0 19 1;
#X connect 30 0 31 0;
#X connect 35 0 36 1;
#X connect 36 0 30 0;
#X connect 37 0 32 0;
#X connect 38 0 39 1;
#X connect 39 0 37 0;
#X connect 40 0 33 0;
#X connect 41 0 42 1;
#X connect 42 0 40 0;
#X connect 43 0 34 0;
#X connect 44 0 45 1;
#X connect 45 0 43 0;
#X connect 47 0 49 0;
#X connect 49 0 48 0;
#X connect 50 0 30 0;
#X connect 51 0 37 0;
#X connect 52 0 40 0;
#X connect 53 0 43 0;
#X connect 54 0 55 0;
#X connect 54 1 18 0;
#X connect 55 0 50 0;
#X connect 55 1 51 0;
#X connect 55 2 52 0;
#X connect 55 3 53 0;
#X restore 365 68 pd bank-select;
#X obj 27 124 hradio 16 1 0 4 \$0-banksel \$0-bankseldummy Banks 0 24 0 10 #fcfcfc #000000 #000000 0;
#X obj 365 20 inlet;
#X obj 365 44 s \$0-bankseldummy;
#X obj 428 20 loadbang;
#X floatatom 99 125 6 20 10000 3 Ramp \$0-rampin \$0-ramp 10;
#X obj 101 98 bng 16 250 50 0 \$0-getter \$0-getterdummy p 6 8 0 8 #ffffff #606060 #000000;
#X obj 101 75 bng 16 250 50 0 \$0-rander \$0-randerinit r 6 8 0 8 #000000 #ffffff #ffffff;
#X obj 101 52 bng 16 250 50 0 \$0-normer \$0-normerdummy n 6 8 0 8 #000000 #ffffff #ffffff;
#X obj 101 29 bng 16 250 50 0 \$0-save \$0-savedummy s 6 8 0 8 #000000 #ffffff #ffffff;
#X obj 122 31 vsl 15 80 1 10 0 0 \$0-rval \$0-rvalinit empty 0 -9 0 12 #ffe3c6 #000000 #000000 0 1;
#X obj 266 20 inlet~;
#X obj 27 31 vsl 15 80 -1 1 0 0 \$0-sl1o \$0-sl1i empty 0 -9 0 12 #ffffff #000000 #000000 0 1;
#X obj 45 31 vsl 15 80 -1 1 0 0 \$0-sl2o \$0-sl2i empty 0 -9 0 12 #fcfcfc #000000 #000000 0 1;
#X obj 63 31 vsl 15 80 -1 1 0 0 \$0-sl3o \$0-sl3i empty 0 -9 0 12 #fcfcfc #000000 #000000 0 1;
#X obj 81 31 vsl 15 80 -1 1 0 0 \$0-sl4o \$0-sl4i empty 0 -9 0 12 #fcfcfc #000000 #000000 0 1;
#X obj 34 31 vsl 8 80 -1 1 0 0 \$0-sl1od \$0-sl1id empty 0 -9 0 12 #ffffff #bbbbbb #000000 0 1;
#X obj 52 31 vsl 8 80 -1 1 0 0 \$0-sl2od \$0-sl2id empty 0 -9 0 12 #fcfcfc #bbbbbb #000000 0 1;
#X obj 70 31 vsl 8 80 -1 1 0 0 \$0-sl3od \$0-sl3id empty 0 -9 0 12 #ffffff #bbbbbb #000000 0 1;
#X obj 88 31 vsl 8 80 -1 1 0 0 \$0-sl4od \$0-sl4id empty 0 -9 0 12 #fcfcfc #bbbbbb #000000 0 1;
#X text 151 112 lateefah mini abstraction can hold up to 4 presets of each 4 signal value streams \, that can offset latent inputs of nn~. Second inlet allows modulation of each stream (e.g. via modulator8 abstraction). The outlet is multichannel., f 50;
#X obj 153 44 route list bang;
#X obj 153 68 s \$0-randerinit;
#X text 354 189 Author: Martin Heinze;
#X text 333 205 Last updated: 15.06.2025;
#X connect 1 0 25 0;
#X connect 3 0 0 0;
#X connect 6 0 7 0;
#X connect 8 0 7 0;
#X connect 15 0 3 0;
#X connect 25 0 2 0;
#X connect 25 1 26 0;
#X coords 0 -1 1 1 123 140 2 20 20;
