#N canvas 652 427 764 222 12;
#X obj 29 32 vsl 15 80 -1 1 0 0 \$0-sl1o \$0-sl1i empty 0 -9 0 12 #fcfcfc #000000 #000000 0 1;
#X obj 47 32 vsl 15 80 -1 1 0 0 \$0-sl2o \$0-sl2i empty 0 -9 0 12 #fcfcfc #000000 #000000 0 1;
#X obj 65 32 vsl 15 80 -1 1 0 0 \$0-sl3o \$0-sl3i empty 0 -9 0 12 #fcfcfc #000000 #000000 0 1;
#X obj 83 32 vsl 15 80 -1 1 0 0 \$0-sl4o \$0-sl4i empty 0 -9 0 12 #fcfcfc #000000 #000000 0 1;
#X obj 101 32 vsl 15 80 -1 1 0 0 \$0-sl5o \$0-sl5i empty 0 -9 0 12 #fcfcfc #000000 #000000 0 1;
#X obj 119 32 vsl 15 80 -1 1 0 0 \$0-sl6o \$0-sl6i empty 0 -9 0 12 #fcfcfc #000000 #000000 0 1;
#X obj 137 32 vsl 15 80 -1 1 0 0 \$0-sl7o \$0-sl7i empty 0 -9 0 12 #fcfcfc #000000 #000000 0 1;
#X obj 155 32 vsl 15 80 -1 1 0 0 \$0-sl8o \$0-sl8i empty 0 -9 0 12 #fcfcfc #000000 #000000 0 1;
#X obj 484 68 outlet~;
#X obj 319 99 bng 16 250 50 0 \$0-getter \$0-getterdummy p 6 8 0 8 #ffffff #606060 #000000;
#X obj 370 20 inlet;
#X obj 319 76 bng 16 250 50 0 \$0-rander \$0-randerinit r 6 8 0 8 #000000 #ffffff #ffffff;
#X obj 319 53 bng 16 250 50 0 \$0-normer \$0-normerdummy n 6 8 0 8 #000000 #ffffff #ffffff;
#N canvas 80 61 1297 700 array-setter 0;
#X obj 402 41 r \$0-rander;
#X obj 322 118 s \$0-sl1i;
#X obj 322 196 s \$0-sl2i;
#X obj 322 273 s \$0-sl3i;
#X obj 322 350 s \$0-sl4i;
#X obj 322 427 s \$0-sl5i;
#X obj 322 504 s \$0-sl6i;
#X obj 322 581 s \$0-sl7i;
#X obj 322 658 s \$0-sl8i;
#X obj 322 41 bng 19 250 50 0 empty \$0-normer empty 0 -10 0 12 #fcfcfc #000000 #000000;
#X msg 322 64 0, f 1;
#X obj 7 17 inlet;
#X obj 322 17 loadbang;
#X obj 402 71 expr ((random(-1000 \, 1000)*0.001)+(random(-1000 \, 1000)*0.001)+(random(-1000 \, 1000)*0.001)+(random(-1000 \, 1000)*0.001))/4;
#X obj 402 149 expr ((random(-1000 \, 1000)*0.001)+(random(-1000 \, 1000)*0.001)+(random(-1000 \, 1000)*0.001)+(random(-1000 \, 1000)*0.001))/4;
#X obj 402 226 expr ((random(-1000 \, 1000)*0.001)+(random(-1000 \, 1000)*0.001)+(random(-1000 \, 1000)*0.001)+(random(-1000 \, 1000)*0.001))/4;
#X obj 402 303 expr ((random(-1000 \, 1000)*0.001)+(random(-1000 \, 1000)*0.001)+(random(-1000 \, 1000)*0.001)+(random(-1000 \, 1000)*0.001))/4;
#X obj 402 380 expr ((random(-1000 \, 1000)*0.001)+(random(-1000 \, 1000)*0.001)+(random(-1000 \, 1000)*0.001)+(random(-1000 \, 1000)*0.001))/4;
#X obj 402 457 expr ((random(-1000 \, 1000)*0.001)+(random(-1000 \, 1000)*0.001)+(random(-1000 \, 1000)*0.001)+(random(-1000 \, 1000)*0.001))/4;
#X obj 402 534 expr ((random(-1000 \, 1000)*0.001)+(random(-1000 \, 1000)*0.001)+(random(-1000 \, 1000)*0.001)+(random(-1000 \, 1000)*0.001))/4;
#X obj 402 611 expr ((random(-1000 \, 1000)*0.001)+(random(-1000 \, 1000)*0.001)+(random(-1000 \, 1000)*0.001)+(random(-1000 \, 1000)*0.001))/4;
#X obj 882 41 r \$0-rander;
#X obj 882 71 expr ((random(-1000 \, 1000)*0.001)+(random(-1000 \, 1000)*0.001)+(random(-1000 \, 1000)*0.001)+(random(-1000 \, 1000)*0.001))/4;
#X obj 882 149 expr ((random(-1000 \, 1000)*0.001)+(random(-1000 \, 1000)*0.001)+(random(-1000 \, 1000)*0.001)+(random(-1000 \, 1000)*0.001))/4;
#X obj 882 226 expr ((random(-1000 \, 1000)*0.001)+(random(-1000 \, 1000)*0.001)+(random(-1000 \, 1000)*0.001)+(random(-1000 \, 1000)*0.001))/4;
#X obj 882 303 expr ((random(-1000 \, 1000)*0.001)+(random(-1000 \, 1000)*0.001)+(random(-1000 \, 1000)*0.001)+(random(-1000 \, 1000)*0.001))/4;
#X obj 882 380 expr ((random(-1000 \, 1000)*0.001)+(random(-1000 \, 1000)*0.001)+(random(-1000 \, 1000)*0.001)+(random(-1000 \, 1000)*0.001))/4;
#X obj 882 457 expr ((random(-1000 \, 1000)*0.001)+(random(-1000 \, 1000)*0.001)+(random(-1000 \, 1000)*0.001)+(random(-1000 \, 1000)*0.001))/4;
#X obj 882 534 expr ((random(-1000 \, 1000)*0.001)+(random(-1000 \, 1000)*0.001)+(random(-1000 \, 1000)*0.001)+(random(-1000 \, 1000)*0.001))/4;
#X obj 882 611 expr ((random(-1000 \, 1000)*0.001)+(random(-1000 \, 1000)*0.001)+(random(-1000 \, 1000)*0.001)+(random(-1000 \, 1000)*0.001))/4;
#X obj 802 118 s \$0-sl9i;
#X obj 802 196 s \$0-sl10i;
#X obj 802 273 s \$0-sl11i;
#X obj 802 350 s \$0-sl12i;
#X obj 802 427 s \$0-sl13i;
#X obj 802 504 s \$0-sl14i;
#X obj 802 581 s \$0-sl15i;
#X obj 802 658 s \$0-sl16i;
#X obj 7 41 unpack f f f f f f f f f f f f f f f f, f 39;
#X msg 802 60 0, f 1;
#X connect 0 0 13 0;
#X connect 0 0 14 0;
#X connect 0 0 15 0;
#X connect 0 0 16 0;
#X connect 0 0 17 0;
#X connect 0 0 18 0;
#X connect 0 0 19 0;
#X connect 0 0 20 0;
#X connect 9 0 10 0;
#X connect 9 0 39 0;
#X connect 10 0 1 0;
#X connect 10 0 8 0;
#X connect 10 0 7 0;
#X connect 10 0 6 0;
#X connect 10 0 5 0;
#X connect 10 0 4 0;
#X connect 10 0 3 0;
#X connect 10 0 2 0;
#X connect 11 0 38 0;
#X connect 12 0 9 0;
#X connect 13 0 1 0;
#X connect 14 0 2 0;
#X connect 15 0 3 0;
#X connect 16 0 4 0;
#X connect 17 0 5 0;
#X connect 18 0 6 0;
#X connect 19 0 7 0;
#X connect 20 0 8 0;
#X connect 21 0 22 0;
#X connect 21 0 23 0;
#X connect 21 0 24 0;
#X connect 21 0 25 0;
#X connect 21 0 26 0;
#X connect 21 0 27 0;
#X connect 21 0 28 0;
#X connect 21 0 29 0;
#X connect 22 0 30 0;
#X connect 23 0 31 0;
#X connect 24 0 32 0;
#X connect 25 0 33 0;
#X connect 26 0 34 0;
#X connect 27 0 35 0;
#X connect 28 0 36 0;
#X connect 29 0 37 0;
#X connect 38 0 1 0;
#X connect 38 1 2 0;
#X connect 38 2 3 0;
#X connect 38 3 4 0;
#X connect 38 4 5 0;
#X connect 38 5 6 0;
#X connect 38 6 7 0;
#X connect 38 7 8 0;
#X connect 38 8 30 0;
#X connect 38 9 31 0;
#X connect 38 10 32 0;
#X connect 38 11 33 0;
#X connect 38 12 34 0;
#X connect 38 13 35 0;
#X connect 38 14 36 0;
#X connect 38 15 37 0;
#X connect 39 0 30 0;
#X connect 39 0 37 0;
#X connect 39 0 36 0;
#X connect 39 0 35 0;
#X connect 39 0 34 0;
#X connect 39 0 33 0;
#X connect 39 0 32 0;
#X connect 39 0 31 0;
#X restore 370 92 pd array-setter;
#N canvas 33 185 1176 342 sigcollect 0;
#X obj 11 11 r \$0-sl1o;
#X obj 82 11 r \$0-sl2o;
#X obj 154 11 r \$0-sl3o;
#X obj 225 11 r \$0-sl4o;
#X obj 297 11 r \$0-sl5o;
#X obj 368 11 r \$0-sl6o;
#X obj 440 11 r \$0-sl7o;
#X obj 512 11 r \$0-sl8o;
#X obj 11 301 outlet~;
#X obj 11 35 lop~ 10;
#X obj 82 35 lop~ 10;
#X obj 154 35 lop~ 10;
#X obj 225 35 lop~ 10;
#X obj 297 35 lop~ 10;
#X obj 368 35 lop~ 10;
#X obj 440 35 lop~ 10;
#X obj 512 35 lop~ 10;
#X obj 11 277 *~;
#X obj 29 229 r \$0-rval;
#X obj 29 253 lop~ 10;
#X obj 110 229 loadbang;
#X msg 110 253 1, f 1;
#X obj 110 277 s \$0-rvalinit;
#X obj 584 35 lop~ 10;
#X obj 656 35 lop~ 10;
#X obj 727 35 lop~ 10;
#X obj 799 35 lop~ 10;
#X obj 871 35 lop~ 10;
#X obj 942 35 lop~ 10;
#X obj 1014 35 lop~ 10;
#X obj 1086 35 lop~ 10;
#X obj 584 11 r \$0-sl9o;
#X obj 656 11 r \$0-sl10o;
#X obj 727 11 r \$0-sl11o;
#X obj 799 11 r \$0-sl12o;
#X obj 871 11 r \$0-sl13o;
#X obj 942 11 r \$0-sl14o;
#X obj 1014 11 r \$0-sl15o;
#X obj 1086 11 r \$0-sl16o;
#X obj 11 59 snake~ in 16, f 154;
#X obj 11 167 +~;
#X obj 29 107 expr if($f1==1 \, 1 \, 0) \; if($f1==1 \, 2 \, 1) \;;
#X obj 29 83 r \$0-positgl;
#X obj 29 144 sig~ 0;
#X obj 11 191 /~ 1, f 6;
#X connect 0 0 9 0;
#X connect 1 0 10 0;
#X connect 2 0 11 0;
#X connect 3 0 12 0;
#X connect 4 0 13 0;
#X connect 5 0 14 0;
#X connect 6 0 15 0;
#X connect 7 0 16 0;
#X connect 9 0 39 0;
#X connect 10 0 39 1;
#X connect 11 0 39 2;
#X connect 12 0 39 3;
#X connect 13 0 39 4;
#X connect 14 0 39 5;
#X connect 15 0 39 6;
#X connect 16 0 39 7;
#X connect 17 0 8 0;
#X connect 18 0 19 0;
#X connect 19 0 17 1;
#X connect 20 0 21 0;
#X connect 21 0 22 0;
#X connect 23 0 39 8;
#X connect 24 0 39 9;
#X connect 25 0 39 10;
#X connect 26 0 39 11;
#X connect 27 0 39 12;
#X connect 28 0 39 13;
#X connect 29 0 39 14;
#X connect 30 0 39 15;
#X connect 31 0 23 0;
#X connect 32 0 24 0;
#X connect 33 0 25 0;
#X connect 34 0 26 0;
#X connect 35 0 27 0;
#X connect 36 0 28 0;
#X connect 37 0 29 0;
#X connect 38 0 30 0;
#X connect 39 0 40 0;
#X connect 40 0 44 0;
#X connect 41 0 43 0;
#X connect 41 1 44 1;
#X connect 42 0 41 0;
#X connect 43 0 40 1;
#X connect 44 0 17 0;
#X restore 484 44 pd sigcollect;
#N canvas 36 79 1475 522 bank-select 0;
#X obj 17 196 array get \$0-bank1;
#X obj 17 220 print \$0-lateefah-bank1;
#X obj 17 124 r \$0-getter;
#X obj 17 244 array get \$0-bank2;
#X obj 17 148 array get \$0-bank0;
#X obj 17 172 print \$0-lateefah-bank0;
#X obj 17 268 print \$0-lateefah-bank2;
#X obj 17 292 array get \$0-bank3;
#X obj 17 316 print \$0-lateefah-bank3;
#X obj 505 125 r \$0-banksel;
#X obj 565 168 makefilename \$0-bank%i;
#X obj 414 10 r \$0-sl1o;
#X obj 414 33 r \$0-sl2o;
#X obj 414 56 r \$0-sl3o;
#X obj 414 79 r \$0-sl4o;
#X obj 414 102 r \$0-sl5o;
#X obj 414 125 r \$0-sl6o;
#X obj 414 148 r \$0-sl7o;
#X obj 414 171 r \$0-sl8o;
#X obj 505 193 array get;
#X obj 293 411 r \$0-banksel;
#X obj 293 435 makefilename \$0-bank%i;
#X obj 233 459 array set;
#X obj 201 405 list;
#X obj 201 343 r \$0-save;
#X obj 201 367 t b b;
#X text 103 123 <- print all banks;
#X obj 505 149 t b f;
#X obj 505 289 line;
#X obj 505 313 s \$0-sl1i;
#X obj 560 423 s \$0-sl2i;
#X obj 616 313 s \$0-sl3i;
#X obj 673 423 s \$0-sl4i;
#X obj 728 313 s \$0-sl5i;
#X obj 784 423 s \$0-sl6i;
#X obj 839 313 s \$0-sl7i;
#X obj 895 423 s \$0-sl8i;
#X obj 558 242 r \$0-ramp;
#X obj 505 265 pack f f;
#X obj 560 399 line;
#X obj 613 352 r \$0-ramp;
#X obj 560 375 pack f f;
#X obj 616 289 line;
#X obj 669 242 r \$0-ramp;
#X obj 616 265 pack f f;
#X obj 673 399 line;
#X obj 726 352 r \$0-ramp;
#X obj 673 375 pack f f;
#X obj 728 289 line;
#X obj 781 242 r \$0-ramp;
#X obj 728 265 pack f f;
#X obj 784 399 line;
#X obj 837 352 r \$0-ramp;
#X obj 784 375 pack f f;
#X obj 839 289 line;
#X obj 892 242 r \$0-ramp;
#X obj 839 265 pack f f;
#X obj 895 399 line;
#X obj 948 352 r \$0-ramp;
#X obj 895 375 pack f f;
#X obj 17 346 loadbang;
#X obj 17 394 s \$0-rampin;
#X msg 17 370 100;
#X msg 505 474 set \$1;
#X msg 560 474 set \$1;
#X msg 616 474 set \$1;
#X msg 672 474 set \$1;
#X obj 201 429 t a a;
#X msg 728 474 set \$1;
#X msg 784 474 set \$1;
#X msg 839 474 set \$1;
#X msg 895 474 set \$1;
#X text 308 458 <- store to bank;
#X obj 17 10 array define \$0-bank0 16;
#X obj 17 35 array define \$0-bank1 16;
#X obj 17 60 array define \$0-bank2 16;
#X obj 17 85 array define \$0-bank3 16;
#X obj 951 289 line;
#X obj 1004 242 r \$0-ramp;
#X obj 951 265 pack f f;
#X obj 1007 399 line;
#X obj 1060 352 r \$0-ramp;
#X obj 1007 375 pack f f;
#X obj 1063 289 line;
#X obj 1116 242 r \$0-ramp;
#X obj 1063 265 pack f f;
#X obj 1118 399 line;
#X obj 1171 352 r \$0-ramp;
#X obj 1118 375 pack f f;
#X obj 1174 289 line;
#X obj 1227 242 r \$0-ramp;
#X obj 1174 265 pack f f;
#X obj 1230 399 line;
#X obj 1283 352 r \$0-ramp;
#X obj 1230 375 pack f f;
#X obj 1286 289 line;
#X obj 1339 242 r \$0-ramp;
#X obj 1286 265 pack f f;
#X obj 1342 399 line;
#X obj 1395 352 r \$0-ramp;
#X obj 1342 375 pack f f;
#X obj 951 313 s \$0-sl9i;
#X obj 1007 423 s \$0-sl10i;
#X obj 1063 313 s \$0-sl11i;
#X obj 1118 423 s \$0-sl12i;
#X obj 1174 313 s \$0-sl13i;
#X obj 1230 423 s \$0-sl14i;
#X obj 1286 313 s \$0-sl15i;
#X obj 1342 423 s \$0-sl16i;
#X obj 505 217 unpack f f f f f f f f f f f f f f f f, f 120;
#X obj 505 448 unpack f f f f f f f f f f f f f f f f, f 120;
#X msg 951 474 set \$1;
#X msg 1007 474 set \$1;
#X msg 1063 474 set \$1;
#X msg 1118 474 set \$1;
#X msg 1174 474 set \$1;
#X msg 1230 474 set \$1;
#X msg 1286 474 set \$1;
#X msg 1342 474 set \$1;
#X obj 248 386 pack f f f f f f f f f f f f f f f f;
#X obj 414 194 r \$0-sl9o;
#X obj 414 217 r \$0-sl10o;
#X obj 414 240 r \$0-sl11o;
#X obj 414 263 r \$0-sl12o;
#X obj 414 286 r \$0-sl13o;
#X obj 414 309 r \$0-sl14o;
#X obj 414 332 r \$0-sl15o;
#X obj 414 355 r \$0-sl16o;
#X text 576 192 <- load from bank;
#X connect 0 0 1 0;
#X connect 2 0 4 0;
#X connect 2 0 0 0;
#X connect 2 0 7 0;
#X connect 2 0 3 0;
#X connect 3 0 6 0;
#X connect 4 0 5 0;
#X connect 7 0 8 0;
#X connect 9 0 27 0;
#X connect 10 0 19 2;
#X connect 11 0 119 0;
#X connect 12 0 119 1;
#X connect 13 0 119 2;
#X connect 14 0 119 3;
#X connect 15 0 119 4;
#X connect 16 0 119 5;
#X connect 17 0 119 6;
#X connect 18 0 119 7;
#X connect 19 0 109 0;
#X connect 20 0 21 0;
#X connect 21 0 22 2;
#X connect 23 0 67 0;
#X connect 24 0 25 0;
#X connect 25 0 23 0;
#X connect 25 1 119 0;
#X connect 27 0 19 0;
#X connect 27 1 10 0;
#X connect 28 0 29 0;
#X connect 37 0 38 1;
#X connect 38 0 28 0;
#X connect 39 0 30 0;
#X connect 40 0 41 1;
#X connect 41 0 39 0;
#X connect 42 0 31 0;
#X connect 43 0 44 1;
#X connect 44 0 42 0;
#X connect 45 0 32 0;
#X connect 46 0 47 1;
#X connect 47 0 45 0;
#X connect 48 0 33 0;
#X connect 49 0 50 1;
#X connect 50 0 48 0;
#X connect 51 0 34 0;
#X connect 52 0 53 1;
#X connect 53 0 51 0;
#X connect 54 0 35 0;
#X connect 55 0 56 1;
#X connect 56 0 54 0;
#X connect 57 0 36 0;
#X connect 58 0 59 1;
#X connect 59 0 57 0;
#X connect 60 0 62 0;
#X connect 62 0 61 0;
#X connect 63 0 28 0;
#X connect 64 0 39 0;
#X connect 65 0 42 0;
#X connect 66 0 45 0;
#X connect 67 0 110 0;
#X connect 67 1 22 0;
#X connect 68 0 48 0;
#X connect 69 0 51 0;
#X connect 70 0 54 0;
#X connect 71 0 57 0;
#X connect 77 0 101 0;
#X connect 78 0 79 1;
#X connect 79 0 77 0;
#X connect 80 0 102 0;
#X connect 81 0 82 1;
#X connect 82 0 80 0;
#X connect 83 0 103 0;
#X connect 84 0 85 1;
#X connect 85 0 83 0;
#X connect 86 0 104 0;
#X connect 87 0 88 1;
#X connect 88 0 86 0;
#X connect 89 0 105 0;
#X connect 90 0 91 1;
#X connect 91 0 89 0;
#X connect 92 0 106 0;
#X connect 93 0 94 1;
#X connect 94 0 92 0;
#X connect 95 0 107 0;
#X connect 96 0 97 1;
#X connect 97 0 95 0;
#X connect 98 0 108 0;
#X connect 99 0 100 1;
#X connect 100 0 98 0;
#X connect 109 0 38 0;
#X connect 109 1 41 0;
#X connect 109 2 44 0;
#X connect 109 3 47 0;
#X connect 109 4 50 0;
#X connect 109 5 53 0;
#X connect 109 6 56 0;
#X connect 109 7 59 0;
#X connect 109 8 79 0;
#X connect 109 9 82 0;
#X connect 109 10 85 0;
#X connect 109 11 88 0;
#X connect 109 12 91 0;
#X connect 109 13 94 0;
#X connect 109 14 97 0;
#X connect 109 15 100 0;
#X connect 110 0 63 0;
#X connect 110 1 64 0;
#X connect 110 2 65 0;
#X connect 110 3 66 0;
#X connect 110 4 68 0;
#X connect 110 5 69 0;
#X connect 110 6 70 0;
#X connect 110 7 71 0;
#X connect 110 8 111 0;
#X connect 110 9 112 0;
#X connect 110 10 113 0;
#X connect 110 11 114 0;
#X connect 110 12 115 0;
#X connect 110 13 116 0;
#X connect 110 14 117 0;
#X connect 110 15 118 0;
#X connect 111 0 77 0;
#X connect 112 0 80 0;
#X connect 113 0 83 0;
#X connect 114 0 86 0;
#X connect 115 0 89 0;
#X connect 116 0 92 0;
#X connect 117 0 95 0;
#X connect 118 0 98 0;
#X connect 119 0 23 1;
#X connect 120 0 119 8;
#X connect 121 0 119 9;
#X connect 122 0 119 10;
#X connect 123 0 119 11;
#X connect 124 0 119 12;
#X connect 125 0 119 13;
#X connect 126 0 119 14;
#X connect 127 0 119 15;
#X restore 485 92 pd bank-select;
#X obj 29 125 hradio 16 1 0 4 \$0-banksel \$0-bankseldummy Banks 68 8 0 10 #fcfcfc #000000 #000000 0;
#X obj 319 30 bng 16 250 50 0 \$0-save \$0-savedummy s 6 8 0 8 #000000 #ffffff #ffffff;
#X obj 584 20 inlet;
#X floatatom 132 126 6 20 10000 1 Ramp \$0-rampin \$0-ramp 10;
#X obj 340 32 vsl 15 80 1 10 0 0 \$0-rval \$0-rvalinit empty 0 -9 0 12 #ffe3c6 #000000 #000000 0 1;
#X obj 370 44 route list bang;
#X obj 370 68 s \$0-randerinit;
#X text 592 170 Author: Martin Heinze;
#X obj 554 68 s \$0-bankseldummy;
#N canvas 92 197 247 127 presets 0;
#X obj 10 13 inlet;
#X obj 10 61 unpack f f, f 13;
#X obj 10 85 s \$0-rampin;
#X obj 98 86 s \$0-rvalinit;
#X obj 60 13 loadbang;
#X msg 60 37 100 1;
#X msg 111 37 0, f 1;
#X obj 111 61 s \$0-bankseldummy;
#X connect 0 0 1 0;
#X connect 1 0 2 0;
#X connect 1 1 3 0;
#X connect 4 0 5 0;
#X connect 4 0 6 0;
#X connect 5 0 1 0;
#X connect 6 0 7 0;
#X restore 632 92 pd presets;
#X obj 584 44 route float list bang;
#X obj 680 68 s \$0-save;
#X obj 173 32 vsl 15 80 -1 1 0 0 \$0-sl9o \$0-sl9i empty 0 -9 0 12 #fcfcfc #000000 #000000 0 1;
#X obj 191 32 vsl 15 80 -1 1 0 0 \$0-sl10o \$0-sl10i empty 0 -9 0 12 #fcfcfc #000000 #000000 0 1;
#X obj 209 32 vsl 15 80 -1 1 0 0 \$0-sl11o \$0-sl11i empty 0 -9 0 12 #fcfcfc #000000 #000000 0 1;
#X obj 227 32 vsl 15 80 -1 1 0 0 \$0-sl12o \$0-sl12i empty 0 -9 0 12 #fcfcfc #000000 #000000 0 1;
#X obj 245 32 vsl 15 80 -1 1 0 0 \$0-sl13o \$0-sl13i empty 0 -9 0 12 #fcfcfc #000000 #000000 0 1;
#X obj 263 32 vsl 15 80 -1 1 0 0 \$0-sl14o \$0-sl14i empty 0 -9 0 12 #fcfcfc #000000 #000000 0 1;
#X obj 281 32 vsl 15 80 -1 1 0 0 \$0-sl15o \$0-sl15i empty 0 -9 0 12 #fcfcfc #000000 #000000 0 1;
#X obj 299 32 vsl 15 80 -1 1 0 0 \$0-sl16o \$0-sl16i empty 0 -9 0 12 #fcfcfc #000000 #000000 0 1;
#X text 368 120 lateefah abstraction can hold up to 4 presets of each 16 signal value streams \, that can offset latent inputs of nn~. The outlet is multichannel., f 53;
#X text 571 186 Last updated: 09.07.2026;
#X obj 209 125 tgl 16 0 \$0-positgl \$0-positglinit Tgl.\ positive 19 9 0 10 #fcfcfc #000000 #000000 0 1;
#X connect 10 0 21 0;
#X connect 14 0 8 0;
#X connect 18 0 26 0;
#X connect 21 0 13 0;
#X connect 21 1 22 0;
#X connect 26 0 24 0;
#X connect 26 1 25 0;
#X connect 26 2 27 0;
#X coords 0 -1 1 1 340 130 2 20 20;
