#N canvas 736 89 585 240 12;
#X obj 175 99 bng 16 250 50 0 \$0-getter \$0-getterdummy p 6 8 0 8 #ffffff #606060 #000000;
#X obj 230 20 inlet;
#X obj 175 76 bng 16 250 50 0 \$0-rander \$0-randerinit r 6 8 0 8 #000000 #ffffff #ffffff;
#X obj 175 53 bng 16 250 50 0 \$0-normer \$0-normerdummy n 6 8 0 8 #000000 #ffffff #ffffff;
#N canvas 312 61 700 695 array-setter 0;
#X obj 292 41 r \$0-rander;
#X obj 212 118 s \$0-sl1i;
#X obj 212 195 s \$0-sl2i;
#X obj 212 272 s \$0-sl3i;
#X obj 212 349 s \$0-sl4i;
#X obj 212 426 s \$0-sl5i;
#X obj 212 503 s \$0-sl6i;
#X obj 212 580 s \$0-sl7i;
#X obj 212 657 s \$0-sl8i;
#X obj 212 41 bng 19 250 50 0 empty \$0-normer empty 0 -10 0 12 #fcfcfc #000000 #000000;
#X msg 212 64 0, f 1;
#X obj 7 41 unpack f f f f f f f f;
#X obj 7 17 inlet;
#X obj 212 17 loadbang;
#X obj 292 71 expr ((random(-1000 \, 1000)*0.001)+(random(-1000 \, 1000)*0.001)+(random(-1000 \, 1000)*0.001)+(random(-1000 \, 1000)*0.001))/4;
#X obj 292 149 expr ((random(-1000 \, 1000)*0.001)+(random(-1000 \, 1000)*0.001)+(random(-1000 \, 1000)*0.001)+(random(-1000 \, 1000)*0.001))/4;
#X obj 292 226 expr ((random(-1000 \, 1000)*0.001)+(random(-1000 \, 1000)*0.001)+(random(-1000 \, 1000)*0.001)+(random(-1000 \, 1000)*0.001))/4;
#X obj 292 303 expr ((random(-1000 \, 1000)*0.001)+(random(-1000 \, 1000)*0.001)+(random(-1000 \, 1000)*0.001)+(random(-1000 \, 1000)*0.001))/4;
#X obj 292 380 expr ((random(-1000 \, 1000)*0.001)+(random(-1000 \, 1000)*0.001)+(random(-1000 \, 1000)*0.001)+(random(-1000 \, 1000)*0.001))/4;
#X obj 292 457 expr ((random(-1000 \, 1000)*0.001)+(random(-1000 \, 1000)*0.001)+(random(-1000 \, 1000)*0.001)+(random(-1000 \, 1000)*0.001))/4;
#X obj 292 534 expr ((random(-1000 \, 1000)*0.001)+(random(-1000 \, 1000)*0.001)+(random(-1000 \, 1000)*0.001)+(random(-1000 \, 1000)*0.001))/4;
#X obj 292 611 expr ((random(-1000 \, 1000)*0.001)+(random(-1000 \, 1000)*0.001)+(random(-1000 \, 1000)*0.001)+(random(-1000 \, 1000)*0.001))/4;
#X connect 0 0 14 0;
#X connect 0 0 15 0;
#X connect 0 0 16 0;
#X connect 0 0 17 0;
#X connect 0 0 18 0;
#X connect 0 0 19 0;
#X connect 0 0 20 0;
#X connect 0 0 21 0;
#X connect 9 0 10 0;
#X connect 10 0 1 0;
#X connect 10 0 8 0;
#X connect 10 0 7 0;
#X connect 10 0 6 0;
#X connect 10 0 5 0;
#X connect 10 0 4 0;
#X connect 10 0 3 0;
#X connect 10 0 2 0;
#X connect 11 0 1 0;
#X connect 11 1 2 0;
#X connect 11 2 3 0;
#X connect 11 3 4 0;
#X connect 11 4 5 0;
#X connect 11 5 6 0;
#X connect 11 6 7 0;
#X connect 11 7 8 0;
#X connect 12 0 11 0;
#X connect 13 0 9 0;
#X connect 14 0 1 0;
#X connect 15 0 2 0;
#X connect 16 0 3 0;
#X connect 17 0 4 0;
#X connect 18 0 5 0;
#X connect 19 0 6 0;
#X connect 20 0 7 0;
#X connect 21 0 8 0;
#X restore 230 94 pd array-setter;
#N canvas 138 338 1171 453 bank-select 0;
#X obj 17 35 array define \$0-bank1 8;
#X obj 17 196 array get \$0-bank1;
#X obj 17 220 print \$0-lateefah-bank1;
#X obj 17 124 r \$0-getter;
#X obj 17 10 array define \$0-bank0 8;
#X obj 17 60 array define \$0-bank2 8;
#X obj 17 244 array get \$0-bank2;
#X obj 17 148 array get \$0-bank0;
#X obj 17 172 print \$0-lateefah-bank0;
#X obj 17 268 print \$0-lateefah-bank2;
#X obj 17 85 array define \$0-bank3 8;
#X obj 17 292 array get \$0-bank3;
#X obj 17 316 print \$0-lateefah-bank3;
#X obj 479 10 r \$0-banksel;
#X obj 539 53 makefilename \$0-bank%i;
#X obj 402 130 r \$0-sl1o;
#X obj 402 153 r \$0-sl2o;
#X obj 402 177 r \$0-sl3o;
#X obj 402 200 r \$0-sl4o;
#X obj 402 223 r \$0-sl5o;
#X obj 402 246 r \$0-sl6o;
#X obj 402 269 r \$0-sl7o;
#X obj 402 292 r \$0-sl8o;
#X obj 479 78 array get;
#X obj 304 346 r \$0-banksel;
#X obj 304 370 makefilename \$0-bank%i;
#X obj 244 394 array set;
#X obj 212 340 list;
#X obj 212 278 r \$0-save;
#X obj 265 321 pack f f f f f f f f;
#X obj 212 302 t b b;
#X text 103 123 <- print all banks;
#X obj 479 34 t b f;
#X obj 479 174 line;
#X obj 479 198 s \$0-sl1i;
#X obj 558 198 s \$0-sl2i;
#X obj 638 198 s \$0-sl3i;
#X obj 717 198 s \$0-sl4i;
#X obj 797 198 s \$0-sl5i;
#X obj 876 198 s \$0-sl6i;
#X obj 956 198 s \$0-sl7i;
#X obj 1036 198 s \$0-sl8i;
#X obj 532 127 r \$0-ramp;
#X obj 479 150 pack f f;
#X obj 558 174 line;
#X obj 611 127 r \$0-ramp;
#X obj 558 150 pack f f;
#X obj 638 174 line;
#X obj 691 127 r \$0-ramp;
#X obj 638 150 pack f f;
#X obj 717 174 line;
#X obj 770 127 r \$0-ramp;
#X obj 717 150 pack f f;
#X obj 797 174 line;
#X obj 850 127 r \$0-ramp;
#X obj 797 150 pack f f;
#X obj 876 174 line;
#X obj 929 127 r \$0-ramp;
#X obj 876 150 pack f f;
#X obj 956 174 line;
#X obj 1009 127 r \$0-ramp;
#X obj 956 150 pack f f;
#X obj 1036 174 line;
#X obj 1089 127 r \$0-ramp;
#X obj 1036 150 pack f f;
#N canvas 846 226 189 234 bin 0;
#X obj 12 14 unpack f f f f f f f f;
#X obj 12 41 s \$0-sl1i;
#X obj 12 64 s \$0-sl2i;
#X obj 12 88 s \$0-sl3i;
#X obj 12 111 s \$0-sl4i;
#X obj 12 134 s \$0-sl5i;
#X obj 12 157 s \$0-sl6i;
#X obj 12 180 s \$0-sl7i;
#X obj 12 203 s \$0-sl8i;
#X text 132 202 Backup;
#X connect 0 0 1 0;
#X connect 0 1 2 0;
#X connect 0 2 3 0;
#X connect 0 3 4 0;
#X connect 0 4 5 0;
#X connect 0 5 6 0;
#X connect 0 6 7 0;
#X connect 0 7 8 0;
#X restore 1052 102 pd bin;
#X obj 479 102 unpack f f f f f f f f, f 80;
#X obj 17 346 loadbang;
#X obj 17 394 s \$0-rampin;
#X msg 17 370 100;
#X msg 479 409 set \$1;
#X msg 558 409 set \$1;
#X msg 638 409 set \$1;
#X msg 717 409 set \$1;
#X obj 212 364 t a a;
#X obj 479 383 unpack f f f f f f f f, f 80;
#X msg 797 409 set \$1;
#X msg 876 409 set \$1;
#X msg 956 409 set \$1;
#X msg 1036 409 set \$1;
#X text 319 393 <- store to bank;
#X text 350 77 load from bank ->;
#X connect 1 0 2 0;
#X connect 3 0 7 0;
#X connect 3 0 1 0;
#X connect 3 0 11 0;
#X connect 3 0 6 0;
#X connect 6 0 9 0;
#X connect 7 0 8 0;
#X connect 11 0 12 0;
#X connect 13 0 32 0;
#X connect 14 0 23 2;
#X connect 15 0 29 0;
#X connect 16 0 29 1;
#X connect 17 0 29 2;
#X connect 18 0 29 3;
#X connect 19 0 29 4;
#X connect 20 0 29 5;
#X connect 21 0 29 6;
#X connect 22 0 29 7;
#X connect 23 0 66 0;
#X connect 24 0 25 0;
#X connect 25 0 26 2;
#X connect 27 0 74 0;
#X connect 28 0 30 0;
#X connect 29 0 27 1;
#X connect 30 0 27 0;
#X connect 30 1 29 0;
#X connect 32 0 23 0;
#X connect 32 1 14 0;
#X connect 33 0 34 0;
#X connect 42 0 43 1;
#X connect 43 0 33 0;
#X connect 44 0 35 0;
#X connect 45 0 46 1;
#X connect 46 0 44 0;
#X connect 47 0 36 0;
#X connect 48 0 49 1;
#X connect 49 0 47 0;
#X connect 50 0 37 0;
#X connect 51 0 52 1;
#X connect 52 0 50 0;
#X connect 53 0 38 0;
#X connect 54 0 55 1;
#X connect 55 0 53 0;
#X connect 56 0 39 0;
#X connect 57 0 58 1;
#X connect 58 0 56 0;
#X connect 59 0 40 0;
#X connect 60 0 61 1;
#X connect 61 0 59 0;
#X connect 62 0 41 0;
#X connect 63 0 64 1;
#X connect 64 0 62 0;
#X connect 66 0 43 0;
#X connect 66 1 46 0;
#X connect 66 2 49 0;
#X connect 66 3 52 0;
#X connect 66 4 55 0;
#X connect 66 5 58 0;
#X connect 66 6 61 0;
#X connect 66 7 64 0;
#X connect 67 0 69 0;
#X connect 69 0 68 0;
#X connect 70 0 33 0;
#X connect 71 0 44 0;
#X connect 72 0 47 0;
#X connect 73 0 50 0;
#X connect 74 0 75 0;
#X connect 74 1 26 0;
#X connect 75 0 70 0;
#X connect 75 1 71 0;
#X connect 75 2 72 0;
#X connect 75 3 73 0;
#X connect 75 4 76 0;
#X connect 75 5 77 0;
#X connect 75 6 78 0;
#X connect 75 7 79 0;
#X connect 76 0 53 0;
#X connect 77 0 56 0;
#X connect 78 0 59 0;
#X connect 79 0 62 0;
#X restore 441 68 pd bank-select;
#X obj 29 125 hradio 16 1 0 4 \$0-banksel \$0-bankseldummy Banks 68 8 0 10 #fcfcfc #000000 #000000 0;
#X obj 175 30 bng 16 250 50 0 \$0-save \$0-savedummy s 6 8 0 8 #000000 #ffffff #ffffff;
#X obj 440 20 inlet;
#X obj 440 44 s \$0-bankseldummy;
#X obj 503 20 loadbang;
#X floatatom 132 126 6 20 10000 1 Ramp \$0-rampin \$0-ramp 10;
#X obj 196 32 vsl 15 80 1 10 0 0 \$0-rval \$0-rvalinit empty 0 -9 0 12 #ffe3c6 #000000 #000000 0 1;
#X obj 342 68 outlet~;
#N canvas 573 373 737 322 sigcollect 0;
#X obj 11 11 r \$0-sl1o;
#X obj 91 11 r \$0-sl2o;
#X obj 172 11 r \$0-sl3o;
#X obj 252 11 r \$0-sl4o;
#X obj 11 290 outlet~;
#X obj 11 35 lop~ 10;
#X obj 91 35 lop~ 10;
#X obj 172 35 lop~ 10;
#X obj 252 35 lop~ 10;
#X obj 11 266 *~;
#X obj 29 218 r \$0-rval;
#X obj 29 242 lop~ 10;
#X obj 110 218 loadbang;
#X msg 110 242 1, f 1;
#X obj 110 266 s \$0-rvalinit;
#X obj 29 60 inlet~;
#X obj 11 108 +~;
#X obj 91 108 +~;
#X obj 172 108 +~;
#X obj 252 108 +~;
#X obj 17 137 snapshot~;
#X obj 17 161 s \$0-sl1id;
#X obj 97 137 snapshot~;
#X obj 97 161 s \$0-sl2id;
#X obj 178 137 snapshot~;
#X obj 259 137 snapshot~;
#X obj 178 161 s \$0-sl3id;
#X obj 259 161 s \$0-sl4id;
#X obj 652 94 loadbang;
#X obj 652 118 metro 20;
#X obj 333 35 lop~ 10;
#X obj 413 35 lop~ 10;
#X obj 494 35 lop~ 10;
#X obj 575 35 lop~ 10;
#X obj 333 11 r \$0-sl5o;
#X obj 413 11 r \$0-sl6o;
#X obj 494 11 r \$0-sl7o;
#X obj 575 11 r \$0-sl8o;
#X obj 333 108 +~;
#X obj 413 108 +~;
#X obj 494 108 +~;
#X obj 575 108 +~;
#X obj 339 137 snapshot~;
#X obj 419 137 snapshot~;
#X obj 500 137 snapshot~;
#X obj 581 137 snapshot~;
#X obj 11 192 snake~ in 8, f 81;
#X obj 29 84 snake~ out 8, f 81;
#X obj 339 161 s \$0-sl5id;
#X obj 419 161 s \$0-sl6id;
#X obj 500 161 s \$0-sl7id;
#X obj 581 161 s \$0-sl8id;
#X connect 0 0 5 0;
#X connect 1 0 6 0;
#X connect 2 0 7 0;
#X connect 3 0 8 0;
#X connect 5 0 16 0;
#X connect 6 0 17 0;
#X connect 7 0 18 0;
#X connect 8 0 19 0;
#X connect 9 0 4 0;
#X connect 10 0 11 0;
#X connect 11 0 9 1;
#X connect 12 0 13 0;
#X connect 13 0 14 0;
#X connect 15 0 47 0;
#X connect 16 0 20 0;
#X connect 16 0 46 0;
#X connect 17 0 22 0;
#X connect 17 0 46 1;
#X connect 18 0 24 0;
#X connect 18 0 46 2;
#X connect 19 0 25 0;
#X connect 19 0 46 3;
#X connect 20 0 21 0;
#X connect 22 0 23 0;
#X connect 24 0 26 0;
#X connect 25 0 27 0;
#X connect 28 0 29 0;
#X connect 29 0 25 0;
#X connect 29 0 24 0;
#X connect 29 0 22 0;
#X connect 29 0 20 0;
#X connect 29 0 45 0;
#X connect 29 0 44 0;
#X connect 29 0 43 0;
#X connect 29 0 42 0;
#X connect 30 0 38 0;
#X connect 31 0 39 0;
#X connect 32 0 40 0;
#X connect 33 0 41 0;
#X connect 34 0 30 0;
#X connect 35 0 31 0;
#X connect 36 0 32 0;
#X connect 37 0 33 0;
#X connect 38 0 42 0;
#X connect 38 0 46 4;
#X connect 39 0 43 0;
#X connect 39 0 46 5;
#X connect 40 0 44 0;
#X connect 40 0 46 6;
#X connect 41 0 45 0;
#X connect 41 0 46 7;
#X connect 42 0 48 0;
#X connect 43 0 49 0;
#X connect 44 0 50 0;
#X connect 45 0 51 0;
#X connect 46 0 9 0;
#X connect 47 0 16 1;
#X connect 47 1 17 1;
#X connect 47 2 18 1;
#X connect 47 3 19 1;
#X connect 47 4 38 1;
#X connect 47 5 39 1;
#X connect 47 6 40 1;
#X connect 47 7 41 1;
#X restore 342 44 pd sigcollect;
#X obj 342 20 inlet~;
#X obj 27 31 vsl 15 80 -1 1 0 0 \$0-sl1o \$0-sl1i empty 0 -9 0 12 #ffffff #000000 #000000 0 1;
#X obj 45 31 vsl 15 80 -1 1 0 0 \$0-sl2o \$0-sl2i empty 0 -9 0 12 #fcfcfc #000000 #000000 0 1;
#X obj 63 31 vsl 15 80 -1 1 0 0 \$0-sl3o \$0-sl3i empty 0 -9 0 12 #fcfcfc #000000 #000000 0 1;
#X obj 81 31 vsl 15 80 -1 1 0 0 \$0-sl4o \$0-sl4i empty 0 -9 0 12 #fcfcfc #000000 #000000 0 1;
#X obj 34 31 vsl 8 80 -1 1 0 0 \$0-sl1od \$0-sl1id empty 0 -9 0 12 #ffffff #bbbbbb #000000 0 1;
#X obj 52 31 vsl 8 80 -1 1 0 0 \$0-sl2od \$0-sl2id empty 0 -9 0 12 #fcfcfc #bbbbbb #000000 0 1;
#X obj 70 31 vsl 8 80 -1 1 0 0 \$0-sl3od \$0-sl3id empty 0 -9 0 12 #ffffff #bbbbbb #000000 0 1;
#X obj 88 31 vsl 8 80 -1 1 0 0 \$0-sl4od \$0-sl4id empty 0 -9 0 12 #fcfcfc #bbbbbb #000000 0 1;
#X obj 99 31 vsl 15 80 -1 1 0 0 \$0-sl5o \$0-sl5i empty 0 -9 0 12 #ffffff #000000 #000000 0 1;
#X obj 117 31 vsl 15 80 -1 1 0 0 \$0-sl6o \$0-sl6i empty 0 -9 0 12 #fcfcfc #000000 #000000 0 1;
#X obj 135 31 vsl 15 80 -1 1 0 0 \$0-sl7o \$0-sl7i empty 0 -9 0 12 #fcfcfc #000000 #000000 0 1;
#X obj 153 31 vsl 15 80 -1 1 0 0 \$0-sl8o \$0-sl8i empty 0 -9 0 12 #fcfcfc #000000 #000000 0 1;
#X obj 106 31 vsl 8 80 -1 1 0 0 \$0-sl5od \$0-sl5id empty 0 -9 0 12 #ffffff #bbbbbb #000000 0 1;
#X obj 124 31 vsl 8 80 -1 1 0 0 \$0-sl6od \$0-sl6id empty 0 -9 0 12 #fcfcfc #bbbbbb #000000 0 1;
#X obj 142 31 vsl 8 80 -1 1 0 0 \$0-sl7od \$0-sl7id empty 0 -9 0 12 #ffffff #bbbbbb #000000 0 1;
#X obj 160 31 vsl 8 80 -1 1 0 0 \$0-sl8od \$0-sl8id empty 0 -9 0 12 #fcfcfc #bbbbbb #000000 0 1;
#X obj 230 44 route list bang;
#X obj 230 68 s \$0-randerinit;
#X text 227 117 lateefah_mod abstraction can hold up to 4 presets of each 8 signal value streams \, that can offset latent inputs of nn~. Second inlet allows modulation of each stream (e.g. via modulator8 abstraction). The outlet is multichannel., f 49;
#X text 423 192 Author: Martin Heinze;
#X text 402 208 Last updated: 15.06.2025;
#X connect 1 0 32 0;
#X connect 8 0 9 0;
#X connect 10 0 9 0;
#X connect 14 0 13 0;
#X connect 15 0 14 0;
#X connect 32 0 4 0;
#X connect 32 1 33 0;
#X coords 0 -1 1 1 200 130 2 20 20;
