#N canvas 465 423 558 216 12;
#X obj 44 37 vsl 12 52 0.1 0.5 0 0 \$0-int1 \$0-int1init int 0 -9 0 8 #ff8300 #000000 #000000 0 1;
#X obj 26 37 vsl 12 52 0.01 0.1 0 0 \$0-frq1 \$0-frq1init frq 0 -9 0 8 #ffe3c6 #000000 #000000 0 1;
#X obj 26 104 osc~;
#X obj 26 128 *~;
#X obj 84 37 vsl 12 52 0.1 0.5 0 0 \$0-int1 \$0-int1init int 0 -9 0 8 #00ff04 #000000 #000000 0 1;
#X obj 66 37 vsl 12 52 0.01 0.1 0 0 \$0-frq2 \$0-frq2init frq 0 -9 0 8 #c6ffc7 #000000 #000000 0 1;
#X obj 66 104 osc~;
#X obj 66 128 *~;
#X obj 124 37 vsl 12 52 0.1 0.5 0 0 \$0-int1 \$0-int1init int 0 -9 0 8 #ff0400 #000000 #000000 0 1;
#X obj 106 37 vsl 12 52 0.01 0.1 0 0 \$0-frq3 \$0-frq3init frq 0 -9 0 8 #ffc7c6 #000000 #000000 0 1;
#X obj 106 104 osc~;
#X obj 106 128 *~;
#X obj 164 37 vsl 12 52 0.1 0.5 0 0 \$0-int1 \$0-int1init int 0 -9 0 8 #9c00ff #000000 #000000 0 1;
#X obj 146 37 vsl 12 52 0.01 0.1 0 0 \$0-frq4 \$0-frq4init frq 0 -9 0 8 #e3c6ff #000000 #000000 0 1;
#X obj 146 104 osc~;
#X obj 146 128 *~;
#X obj 26 176 outlet~;
#X text 378 137 Author: Martin Heinze, f 22;
#X obj 366 20 inlet;
#N canvas 826 254 325 473 distro 0;
#X obj 7 7 inlet;
#X obj 7 95 s \$0-frq1init;
#X obj 7 141 s \$0-frq2init;
#X obj 7 187 s \$0-frq3init;
#X obj 7 233 s \$0-frq4init;
#X obj 7 118 s \$0-int1init;
#X obj 7 164 s \$0-int2init;
#X obj 7 210 s \$0-int3init;
#X obj 7 255 s \$0-int4init;
#X obj 56 7 loadbang;
#X obj 126 7 r \$0-reset;
#X obj 7 71 unpack f f f f f f f f f f f f f f f f;
#X obj 7 278 s \$0-frq5init;
#X obj 7 301 s \$0-int5init;
#X obj 7 324 s \$0-frq6init;
#X obj 7 347 s \$0-int6init;
#X obj 7 370 s \$0-frq7init;
#X obj 7 393 s \$0-int7init;
#X obj 7 416 s \$0-frq8init;
#X obj 7 438 s \$0-int8init;
#X msg 56 41 0 0 0 0 0 0 0 0 0 0 0 0 0 0 0 0 0 0;
#X connect 0 0 11 0;
#X connect 9 0 20 0;
#X connect 10 0 20 0;
#X connect 11 0 1 0;
#X connect 11 1 5 0;
#X connect 11 2 2 0;
#X connect 11 3 6 0;
#X connect 11 4 3 0;
#X connect 11 5 7 0;
#X connect 11 6 4 0;
#X connect 11 7 8 0;
#X connect 11 8 12 0;
#X connect 11 9 13 0;
#X connect 11 10 14 0;
#X connect 11 11 15 0;
#X connect 11 12 16 0;
#X connect 11 13 17 0;
#X connect 11 14 18 0;
#X connect 11 15 19 0;
#X connect 20 0 11 0;
#X restore 366 44 pd distro;
#X obj 26 152 snake~ 8, f 40;
#X obj 204 37 vsl 12 52 0.1 0.5 0 0 \$0-int1 \$0-int1init int 0 -9 0 8 #faff00 #000000 #000000 0 1;
#X obj 186 37 vsl 12 52 0.01 0.1 0 0 \$0-frq5 \$0-frq5init frq 0 -9 0 8 #feffc6 #000000 #000000 0 1;
#X obj 186 104 osc~;
#X obj 186 128 *~;
#X obj 244 37 vsl 12 52 0.1 0.5 0 0 \$0-int1 \$0-int1init int 0 -9 0 8 #00faff #000000 #000000 0 1;
#X obj 226 37 vsl 12 52 0.01 0.1 0 0 \$0-frq6 \$0-frq6init frq 0 -9 0 8 #c6feff #000000 #000000 0 1;
#X obj 226 104 osc~;
#X obj 226 128 *~;
#X obj 284 37 vsl 12 52 0.1 0.5 0 0 \$0-int1 \$0-int1init int 0 -9 0 8 #0400ff #000000 #000000 0 1;
#X obj 266 37 vsl 12 52 0.01 0.1 0 0 \$0-frq7 \$0-frq7init frq 0 -9 0 8 #c7c6ff #000000 #000000 0 1;
#X obj 266 104 osc~;
#X obj 266 128 *~;
#X obj 324 37 vsl 12 52 0.1 0.5 0 0 \$0-int1 \$0-int1init int 0 -9 0 8 #9f9f9f #000000 #000000 0 1;
#X obj 306 37 vsl 12 52 0.01 0.1 0 0 \$0-frq8 \$0-frq8init frq 0 -9 0 8 #ffffff #000000 #000000 0 1;
#X obj 306 104 osc~;
#X obj 306 128 *~;
#X text 364 69 modulator4 is a simple 8 channel sine lfo for use with lateefah_mod abstraction., f 24;
#X text 378 157 Last updated: 10.04.25;
#X connect 0 0 3 1;
#X connect 1 0 2 0;
#X connect 2 0 3 0;
#X connect 3 0 20 0;
#X connect 4 0 7 1;
#X connect 5 0 6 0;
#X connect 6 0 7 0;
#X connect 7 0 20 1;
#X connect 8 0 11 1;
#X connect 9 0 10 0;
#X connect 10 0 11 0;
#X connect 11 0 20 2;
#X connect 12 0 15 1;
#X connect 13 0 14 0;
#X connect 14 0 15 0;
#X connect 15 0 20 3;
#X connect 18 0 19 0;
#X connect 20 0 16 0;
#X connect 21 0 24 1;
#X connect 22 0 23 0;
#X connect 23 0 24 0;
#X connect 24 0 20 4;
#X connect 25 0 28 1;
#X connect 26 0 27 0;
#X connect 27 0 28 0;
#X connect 28 0 20 5;
#X connect 29 0 32 1;
#X connect 30 0 31 0;
#X connect 31 0 32 0;
#X connect 32 0 20 6;
#X connect 33 0 36 1;
#X connect 34 0 35 0;
#X connect 35 0 36 0;
#X connect 36 0 20 7;
#X coords 0 -1 1 1 325 80 2 20 20;
