#N canvas 372 410 378 211 12;
#X obj 44 37 vsl 12 52 0.1 0.5 0 0 \$0-int1 \$0-int1init int 0 -9 0 8 #ff8300 #000000 #000000 0 1;
#X obj 26 37 vsl 12 52 0.01 0.1 0 0 \$0-frq1 \$0-frq1init frq 0 -9 0 8 #ffe3c6 #000000 #000000 0 1;
#X obj 26 104 osc~;
#X obj 26 128 *~;
#X obj 84 37 vsl 12 52 0.1 0.5 0 0 \$0-int1 \$0-int1init int 0 -9 0 8 #00ff04 #000000 #000000 0 1;
#X obj 66 37 vsl 12 52 0.01 0.1 0 0 \$0-frq2 \$0-frq2init frq 0 -9 0 8 #c6ffc7 #000000 #000000 0 1;
#X obj 66 104 osc~;
#X obj 66 128 *~;
#X obj 124 37 vsl 12 52 0.1 0.5 0 0 \$0-int1 \$0-int1init int 0 -9 0 8 #ff0400 #000000 #000000 0 1;
#X obj 106 37 vsl 12 52 0.01 0.1 0 0 \$0-frq3 \$0-frq3init frq 0 -9 0 8 #ffc7c6 #000000 #000000 0 1;
#X obj 106 104 osc~;
#X obj 106 128 *~;
#X obj 164 37 vsl 12 52 0.1 0.5 0 0 \$0-int1 \$0-int1init int 0 -9 0 8 #9c00ff #000000 #000000 0 1;
#X obj 146 37 vsl 12 52 0.01 0.1 0 0 \$0-frq4 \$0-frq4init frq 0 -9 0 8 #e3c6ff #000000 #000000 0 1;
#X obj 146 104 osc~;
#X obj 146 128 *~;
#X obj 26 152 snake~ 4, f 17;
#X obj 26 176 outlet~;
#X text 193 69 modulator4 is a simple 4 channel sine lfo for use with lateefah_mini_mod abstraction., f 24;
#X text 207 137 Author: Martin Heinze, f 22;
#X obj 195 20 inlet;
#N canvas 826 254 212 283 distro 0;
#X obj 7 7 inlet;
#X obj 7 71 unpack f f f f f f f f;
#X obj 7 95 s \$0-frq1init;
#X obj 7 141 s \$0-frq2init;
#X obj 7 187 s \$0-frq3init;
#X obj 7 233 s \$0-frq4init;
#X obj 7 118 s \$0-int1init;
#X obj 7 164 s \$0-int2init;
#X obj 7 210 s \$0-int3init;
#X obj 7 255 s \$0-int4init;
#X obj 56 7 loadbang;
#X msg 56 41 0 0 0 0 0 0 0 0 0;
#X obj 126 7 r \$0-reset;
#X connect 0 0 1 0;
#X connect 1 0 2 0;
#X connect 1 1 6 0;
#X connect 1 2 3 0;
#X connect 1 3 7 0;
#X connect 1 4 4 0;
#X connect 1 5 8 0;
#X connect 1 6 5 0;
#X connect 1 7 9 0;
#X connect 10 0 11 0;
#X connect 11 0 1 0;
#X connect 12 0 11 0;
#X restore 195 44 pd distro;
#X text 207 157 Last updated: 10.04.25;
#X connect 0 0 3 1;
#X connect 1 0 2 0;
#X connect 2 0 3 0;
#X connect 3 0 16 0;
#X connect 4 0 7 1;
#X connect 5 0 6 0;
#X connect 6 0 7 0;
#X connect 7 0 16 1;
#X connect 8 0 11 1;
#X connect 9 0 10 0;
#X connect 10 0 11 0;
#X connect 11 0 16 2;
#X connect 12 0 15 1;
#X connect 13 0 14 0;
#X connect 14 0 15 0;
#X connect 15 0 16 3;
#X connect 16 0 17 0;
#X connect 20 0 21 0;
#X coords 0 -1 1 1 165 80 2 20 20;
