#N canvas 118 128 365 401 12;
#X obj 44 61 vsl 12 52 0.1 0.5 0 0 \$0-int1 \$0-int1init int 0 -9 0 8 #ff8300 #000000 #000000 0 1;
#X obj 26 61 vsl 12 52 0.01 0.1 0 0 \$0-frq1 \$0-frq1init frq 0 -9 0 8 #ffe3c6 #000000 #000000 0 1;
#X obj 26 128 osc~;
#X obj 26 152 *~;
#X obj 84 61 vsl 12 52 0.1 0.5 0 0 \$0-int2 \$0-int2init int 0 -9 0 8 #00ff04 #000000 #000000 0 1;
#X obj 66 61 vsl 12 52 0.01 0.1 0 0 \$0-frq2 \$0-frq2init frq 0 -9 0 8 #c6ffc7 #000000 #000000 0 1;
#X obj 66 128 osc~;
#X obj 66 152 *~;
#X obj 124 61 vsl 12 52 0.1 0.5 0 0 \$0-int3 \$0-int3init int 0 -9 0 8 #ff0400 #000000 #000000 0 1;
#X obj 106 61 vsl 12 52 0.01 0.1 0 0 \$0-frq3 \$0-frq3init frq 0 -9 0 8 #ffc7c6 #000000 #000000 0 1;
#X obj 106 128 osc~;
#X obj 106 152 *~;
#X obj 164 61 vsl 12 52 0.1 0.5 0 0 \$0-int4 \$0-int4init int 0 -9 0 8 #9c00ff #000000 #000000 0 1;
#X obj 146 61 vsl 12 52 0.01 0.1 0 0 \$0-frq4 \$0-frq4init frq 0 -9 0 8 #e3c6ff #000000 #000000 0 1;
#X obj 146 128 osc~;
#X obj 146 152 *~;
#X obj 26 273 outlet~;
#X text 186 340 Author: Martin Heinze, f 22;
#N canvas 155 350 1039 425 distro 0;
#X obj 7 55 s \$0-frq1init;
#X obj 7 101 s \$0-frq2init;
#X obj 7 147 s \$0-frq3init;
#X obj 7 193 s \$0-frq4init;
#X obj 7 78 s \$0-int1init;
#X obj 7 124 s \$0-int2init;
#X obj 7 170 s \$0-int3init;
#X obj 7 215 s \$0-int4init;
#X obj 7 31 unpack f f f f f f f f f f f f f f f f;
#X obj 7 238 s \$0-frq5init;
#X obj 7 261 s \$0-int5init;
#X obj 7 284 s \$0-frq6init;
#X obj 7 307 s \$0-int6init;
#X obj 7 330 s \$0-frq7init;
#X obj 7 353 s \$0-int7init;
#X obj 7 376 s \$0-frq8init;
#X obj 7 398 s \$0-int8init;
#X obj 297 7 r \$0-rand;
#X obj 297 31 expr random(1 \, 10) * 0.01 \; random(10 \, 50) * 0.01 \; random(1 \, 10) * 0.01 \; random(10 \, 50) * 0.01 \; random(1 \, 10) * 0.01 \; random(10 \, 50) * 0.01 \; random(1 \, 10) * 0.01 \; random(10 \, 50) * 0.01 \; random(1 \, 10) * 0.01 \; random(10 \, 50) * 0.01 \; random(1 \, 10) * 0.01 \; random(10 \, 50) * 0.01 \; random(1 \, 10) * 0.01 \; random(10 \, 50) * 0.01 \; random(1 \, 10) * 0.01 \; random(10 \, 50) * 0.01, f 44;
#X obj 297 265 pack f f f f f f f f f f f f f f f f, f 44;
#X obj 7 7 r \$0-params;
#X obj 297 289 s \$0-params;
#X obj 297 318 r \$0-reset;
#X msg 297 340 0 0 0 0 0 0 0 0 0 0 0 0 0 0 0 0 0 0;
#X obj 376 7 loadbang;
#X obj 297 362 s \$0-params;
#X obj 619 31 expr random(10 \, 50) * 0.01 \; random(10 \, 50) * 0.01 \; random(10 \, 50) * 0.01 \; random(10 \, 50) * 0.01 \; random(10 \, 50) * 0.01 \; random(10 \, 50) * 0.01 \; random(10 \, 50) * 0.01 \; random(10 \, 50) * 0.01 \;;
#X obj 619 319 s \$0-int8init;
#X obj 619 295 s \$0-int7init;
#X obj 619 271 s \$0-int6init;
#X obj 619 247 s \$0-int5init;
#X obj 619 223 s \$0-int4init;
#X obj 619 199 s \$0-int3init;
#X obj 619 175 s \$0-int2init;
#X obj 619 151 s \$0-int1init;
#X obj 619 7 r \$0-randint;
#X obj 822 7 r \$0-randfrq;
#X obj 822 31 expr random(1 \, 10) * 0.01 \; random(1 \, 10) * 0.01 \; random(1 \, 10) * 0.01 \; random(1 \, 10) * 0.01 \; random(1 \, 10) * 0.01 \; random(1 \, 10) * 0.01 \; random(1 \, 10) * 0.01 \; random(1 \, 10) * 0.01 \;;
#X obj 822 151 s \$0-frq1init;
#X obj 822 175 s \$0-frq2init;
#X obj 822 199 s \$0-frq3init;
#X obj 822 223 s \$0-frq4init;
#X obj 822 247 s \$0-frq5init;
#X obj 822 271 s \$0-frq6init;
#X obj 822 295 s \$0-frq7init;
#X obj 822 319 s \$0-frq8init;
#X connect 8 0 0 0;
#X connect 8 1 4 0;
#X connect 8 2 1 0;
#X connect 8 3 5 0;
#X connect 8 4 2 0;
#X connect 8 5 6 0;
#X connect 8 6 3 0;
#X connect 8 7 7 0;
#X connect 8 8 9 0;
#X connect 8 9 10 0;
#X connect 8 10 11 0;
#X connect 8 11 12 0;
#X connect 8 12 13 0;
#X connect 8 13 14 0;
#X connect 8 14 15 0;
#X connect 8 15 16 0;
#X connect 17 0 18 0;
#X connect 18 0 19 0;
#X connect 18 1 19 1;
#X connect 18 2 19 2;
#X connect 18 3 19 3;
#X connect 18 4 19 4;
#X connect 18 5 19 5;
#X connect 18 6 19 6;
#X connect 18 7 19 7;
#X connect 18 8 19 8;
#X connect 18 9 19 9;
#X connect 18 10 19 10;
#X connect 18 11 19 11;
#X connect 18 12 19 12;
#X connect 18 13 19 13;
#X connect 18 14 19 14;
#X connect 18 15 19 15;
#X connect 19 0 21 0;
#X connect 20 0 8 0;
#X connect 22 0 23 0;
#X connect 23 0 25 0;
#X connect 24 0 18 0;
#X connect 26 0 34 0;
#X connect 26 1 33 0;
#X connect 26 2 32 0;
#X connect 26 3 31 0;
#X connect 26 4 30 0;
#X connect 26 5 29 0;
#X connect 26 6 28 0;
#X connect 26 7 27 0;
#X connect 35 0 26 0;
#X connect 36 0 37 0;
#X connect 37 0 38 0;
#X connect 37 1 39 0;
#X connect 37 2 40 0;
#X connect 37 3 41 0;
#X connect 37 4 42 0;
#X connect 37 5 43 0;
#X connect 37 6 44 0;
#X connect 37 7 45 0;
#X restore 227 203 pd distro;
#X obj 26 176 snake~ 8, f 40;
#X obj 204 61 vsl 12 52 0.1 0.5 0 0 \$0-int5 \$0-int5init int 0 -9 0 8 #faff00 #000000 #000000 0 1;
#X obj 186 61 vsl 12 52 0.01 0.1 0 0 \$0-frq5 \$0-frq5init frq 0 -9 0 8 #feffc6 #000000 #000000 0 1;
#X obj 186 128 osc~;
#X obj 186 152 *~;
#X obj 244 61 vsl 12 52 0.1 0.5 0 0 \$0-int6 \$0-int6init int 0 -9 0 8 #00faff #000000 #000000 0 1;
#X obj 226 61 vsl 12 52 0.01 0.1 0 0 \$0-frq6 \$0-frq6init frq 0 -9 0 8 #c6feff #000000 #000000 0 1;
#X obj 226 128 osc~;
#X obj 226 152 *~;
#X obj 284 61 vsl 12 52 0.1 0.5 0 0 \$0-int7 \$0-int7init int 0 -9 0 8 #0400ff #000000 #000000 0 1;
#X obj 266 61 vsl 12 52 0.01 0.1 0 0 \$0-frq7 \$0-frq7init frq 0 -9 0 8 #c7c6ff #000000 #000000 0 1;
#X obj 266 128 osc~;
#X obj 266 152 *~;
#X obj 324 61 vsl 12 52 0.1 0.5 0 0 \$0-int8 \$0-int8init int 0 -9 0 8 #9f9f9f #000000 #000000 0 1;
#X obj 306 61 vsl 12 52 0.01 0.1 0 0 \$0-frq8 \$0-frq8init frq 0 -9 0 8 #ffffff #000000 #000000 0 1;
#X obj 306 128 osc~;
#X obj 306 152 *~;
#X text 25 299 modulator8 is a simple 8 channel sine lfo for use with lateefah_mod abstraction., f 45;
#X obj 226 27 bng 14 250 50 0 \$0-reset \$0-resetinit Reset 16 7 0 8 #ffffff #000000 #000000;
#X obj 26 27 bng 14 250 50 0 \$0-rand \$0-randinit Random 16 7 0 8 #dfdfdf #000000 #000000;
#X text 186 360 Last updated: 01.05.25;
#X obj 84 27 bng 14 250 50 0 \$0-randint \$0-randintinit Random\ Int 16 7 0 8 #9f9f9f #000000 #000000;
#X obj 154 27 bng 14 250 50 0 \$0-randfrq \$0-randfrqinit Random\ Frq 16 7 0 8 #7c7c7c #000000 #000000;
#X obj 26 250 *~;
#X obj 44 203 r \$0-proctgl;
#X obj 44 227 lop~ 1;
#X obj 289 27 tgl 14 0 \$0-proctgl \$0-proctglinit Process 18 7 0 8 #fcfcfc #000000 #000000 0 1;
#X obj 147 203 loadbang;
#X obj 147 227 f \$0;
#X msg 147 250 \; \$1-proctglinit 1;
#X connect 0 0 3 1;
#X connect 1 0 2 0;
#X connect 2 0 3 0;
#X connect 3 0 19 0;
#X connect 4 0 7 1;
#X connect 5 0 6 0;
#X connect 6 0 7 0;
#X connect 7 0 19 1;
#X connect 8 0 11 1;
#X connect 9 0 10 0;
#X connect 10 0 11 0;
#X connect 11 0 19 2;
#X connect 12 0 15 1;
#X connect 13 0 14 0;
#X connect 14 0 15 0;
#X connect 15 0 19 3;
#X connect 19 0 42 0;
#X connect 20 0 23 1;
#X connect 21 0 22 0;
#X connect 22 0 23 0;
#X connect 23 0 19 4;
#X connect 24 0 27 1;
#X connect 25 0 26 0;
#X connect 26 0 27 0;
#X connect 27 0 19 5;
#X connect 28 0 31 1;
#X connect 29 0 30 0;
#X connect 30 0 31 0;
#X connect 31 0 19 6;
#X connect 32 0 35 1;
#X connect 33 0 34 0;
#X connect 34 0 35 0;
#X connect 35 0 19 7;
#X connect 42 0 16 0;
#X connect 43 0 44 0;
#X connect 44 0 42 1;
#X connect 46 0 47 0;
#X connect 47 0 48 0;
#X coords 0 -1 1 1 325 100 2 20 20;
