#N canvas 741 156 343 393 12;
#X obj 44 60 vsl 12 52 0.1 0.5 0 0 \$0-int1 \$0-int1init int 0 -9 0 8 #ff8300 #000000 #000000 0 1;
#X obj 26 60 vsl 12 52 0.01 0.1 0 0 \$0-frq1 \$0-frq1init frq 0 -9 0 8 #ffe3c6 #000000 #000000 0 1;
#X obj 26 127 osc~;
#X obj 26 151 *~;
#X obj 84 60 vsl 12 52 0.1 0.5 0 0 \$0-int2 \$0-int2init int 0 -9 0 8 #00ff04 #000000 #000000 0 1;
#X obj 66 60 vsl 12 52 0.01 0.1 0 0 \$0-frq2 \$0-frq2init frq 0 -9 0 8 #c6ffc7 #000000 #000000 0 1;
#X obj 66 127 osc~;
#X obj 66 151 *~;
#X obj 124 60 vsl 12 52 0.1 0.5 0 0 \$0-int3 \$0-int3init int 0 -9 0 8 #ff0400 #000000 #000000 0 1;
#X obj 106 60 vsl 12 52 0.01 0.1 0 0 \$0-frq3 \$0-frq3init frq 0 -9 0 8 #ffc7c6 #000000 #000000 0 1;
#X obj 106 127 osc~;
#X obj 106 151 *~;
#X obj 164 60 vsl 12 52 0.1 0.5 0 0 \$0-int4 \$0-int4init int 0 -9 0 8 #9c00ff #000000 #000000 0 1;
#X obj 146 60 vsl 12 52 0.01 0.1 0 0 \$0-frq4 \$0-frq4init frq 0 -9 0 8 #e3c6ff #000000 #000000 0 1;
#X obj 146 127 osc~;
#X obj 146 151 *~;
#X obj 26 175 snake~ 4, f 17;
#X obj 26 273 outlet~;
#X text 172 340 Author: Martin Heinze, f 22;
#N canvas 155 350 914 287 distro 0;
#X obj 7 55 s \$0-frq1init;
#X obj 7 101 s \$0-frq2init;
#X obj 7 147 s \$0-frq3init;
#X obj 7 193 s \$0-frq4init;
#X obj 7 78 s \$0-int1init;
#X obj 7 124 s \$0-int2init;
#X obj 7 170 s \$0-int3init;
#X obj 7 215 s \$0-int4init;
#X obj 187 7 r \$0-rand;
#X obj 7 7 r \$0-params;
#X obj 187 179 s \$0-params;
#X obj 187 208 r \$0-reset;
#X obj 266 7 loadbang;
#X obj 187 252 s \$0-params;
#X obj 509 173 s \$0-int4init;
#X obj 509 149 s \$0-int3init;
#X obj 509 125 s \$0-int2init;
#X obj 509 101 s \$0-int1init;
#X obj 509 7 r \$0-randint;
#X obj 712 7 r \$0-randfrq;
#X obj 712 101 s \$0-frq1init;
#X obj 712 125 s \$0-frq2init;
#X obj 712 149 s \$0-frq3init;
#X obj 712 173 s \$0-frq4init;
#X obj 7 31 unpack f f f f f f f f;
#X obj 187 31 expr random(1 \, 10) * 0.01 \; random(10 \, 50) * 0.01 \; random(1 \, 10) * 0.01 \; random(10 \, 50) * 0.01 \; random(1 \, 10) * 0.01 \; random(10 \, 50) * 0.01 \; random(1 \, 10) * 0.01 \; random(10 \, 50) * 0.01 \;, f 44;
#X obj 187 155 pack f f f f f f f f, f 44;
#X msg 187 230 0 0 0 0 0 0 0 0 0 0;
#X obj 509 31 expr random(10 \, 50) * 0.01 \; random(10 \, 50) * 0.01 \; random(10 \, 50) * 0.01 \; random(10 \, 50) * 0.01 \;;
#X obj 712 31 expr random(1 \, 10) * 0.01 \; random(1 \, 10) * 0.01 \; random(1 \, 10) * 0.01 \; random(1 \, 10) * 0.01 \;;
#X connect 8 0 25 0;
#X connect 9 0 24 0;
#X connect 11 0 27 0;
#X connect 12 0 25 0;
#X connect 18 0 28 0;
#X connect 19 0 29 0;
#X connect 24 0 0 0;
#X connect 24 1 4 0;
#X connect 24 2 1 0;
#X connect 24 3 5 0;
#X connect 24 4 2 0;
#X connect 24 5 6 0;
#X connect 24 6 3 0;
#X connect 24 7 7 0;
#X connect 25 0 26 0;
#X connect 25 1 26 1;
#X connect 25 2 26 2;
#X connect 25 3 26 3;
#X connect 25 4 26 4;
#X connect 25 5 26 5;
#X connect 25 6 26 6;
#X connect 25 7 26 7;
#X connect 26 0 10 0;
#X connect 27 0 13 0;
#X connect 28 0 17 0;
#X connect 28 1 16 0;
#X connect 28 2 15 0;
#X connect 28 3 14 0;
#X connect 29 0 20 0;
#X connect 29 1 21 0;
#X connect 29 2 22 0;
#X connect 29 3 23 0;
#X restore 227 203 pd distro;
#X text 172 360 Last updated: 01.05.25;
#X obj 26 250 *~;
#X obj 44 203 r \$0-proctgl;
#X obj 44 227 lop~ 1;
#X obj 83 27 bng 14 250 50 0 \$0-reset \$0-resetinit empty 16 7 0 8 #ffffff #000000 #000000;
#X obj 26 27 bng 14 250 50 0 \$0-rand \$0-randinit empty 16 7 0 8 #dfdfdf #000000 #000000;
#X obj 45 27 bng 14 250 50 0 \$0-randint \$0-randintinit empty 16 7 0 8 #9f9f9f #000000 #000000;
#X obj 64 27 bng 14 250 50 0 \$0-randfrq \$0-randfrqinit empty 16 7 0 8 #7c7c7c #000000 #000000;
#X obj 107 27 tgl 14 0 \$0-proctgl \$0-proctglinit Process 18 7 0 8 #fcfcfc #000000 #000000 0 1;
#X text 25 300 modulator4 is a simple 4 channel sine lfo for use with lateefah_mod abstraction., f 43;
#X obj 147 203 loadbang;
#X obj 147 227 f \$0;
#X msg 147 250 \; \$1-proctglinit 1;
#X connect 0 0 3 1;
#X connect 1 0 2 0;
#X connect 2 0 3 0;
#X connect 3 0 16 0;
#X connect 4 0 7 1;
#X connect 5 0 6 0;
#X connect 6 0 7 0;
#X connect 7 0 16 1;
#X connect 8 0 11 1;
#X connect 9 0 10 0;
#X connect 10 0 11 0;
#X connect 11 0 16 2;
#X connect 12 0 15 1;
#X connect 13 0 14 0;
#X connect 14 0 15 0;
#X connect 15 0 16 3;
#X connect 16 0 21 0;
#X connect 21 0 17 0;
#X connect 22 0 23 0;
#X connect 23 0 21 1;
#X connect 30 0 31 0;
#X connect 31 0 32 0;
#X coords 0 -1 1 1 165 100 2 20 20;
