#N canvas 749 236 711 443 12;
#X obj 44 61 vsl 12 52 0.1 0.5 0 0 \$0-int1 \$0-int1init int 0 -9 0 8 #ff8300 #000000 #000000 0 1;
#X obj 26 61 vsl 12 52 0.01 0.1 0 0 \$0-frq1 \$0-frq1init frq 0 -9 0 8 #ffe3c6 #000000 #000000 0 1;
#X obj 84 61 vsl 12 52 0.1 0.5 0 0 \$0-int2 \$0-int2init int 0 -9 0 8 #00ff04 #000000 #000000 0 1;
#X obj 66 61 vsl 12 52 0.01 0.1 0 0 \$0-frq2 \$0-frq2init frq 0 -9 0 8 #c6ffc7 #000000 #000000 0 1;
#X obj 124 61 vsl 12 52 0.1 0.5 0 0 \$0-int3 \$0-int3init int 0 -9 0 8 #ff0400 #000000 #000000 0 1;
#X obj 106 61 vsl 12 52 0.01 0.1 0 0 \$0-frq3 \$0-frq3init frq 0 -9 0 8 #ffc7c6 #000000 #000000 0 1;
#X obj 164 61 vsl 12 52 0.1 0.5 0 0 \$0-int4 \$0-int4init int 0 -9 0 8 #9c00ff #000000 #000000 0 1;
#X obj 146 61 vsl 12 52 0.01 0.1 0 0 \$0-frq4 \$0-frq4init frq 0 -9 0 8 #e3c6ff #000000 #000000 0 1;
#X obj 201 401 outlet~;
#X text 496 192 Author: Martin Heinze, f 22;
#N canvas 206 293 595 373 distro 1;
#X obj 353 13 r \$0-randfrq;
#X obj 12 108 s \$0-randfrq;
#X msg 353 60 16;
#X obj 353 84 until;
#X obj 404 127 i;
#X obj 404 151 + 1;
#X obj 404 175 mod 16;
#X obj 404 199 + 1;
#X obj 353 223 expr random(1 \, 10) * 0.01;
#X obj 385 247 f \$0;
#X msg 385 294 set \$1;
#X obj 371 318 makefilename;
#X obj 385 271 makefilename %d-frq%%dinit;
#X obj 353 37 t b b;
#X obj 353 343 s;
#X obj 353 108 t b b;
#X msg 132 60 16;
#X obj 132 84 until;
#X obj 183 127 i;
#X obj 183 151 + 1;
#X obj 183 175 mod 16;
#X obj 183 199 + 1;
#X obj 164 247 f \$0;
#X msg 164 294 set \$1;
#X obj 150 318 makefilename;
#X obj 132 37 t b b;
#X obj 132 343 s;
#X obj 132 108 t b b;
#X obj 132 13 r \$0-randint;
#X obj 132 223 expr random(10 \, 50) * 0.01;
#X obj 164 271 makefilename %d-int%%dinit;
#X obj 12 37 r \$0-rand;
#X obj 12 13 loadbang;
#X obj 12 61 t b b;
#X obj 12 84 s \$0-randint;
#X connect 0 0 13 0;
#X connect 2 0 3 0;
#X connect 3 0 15 0;
#X connect 4 0 5 0;
#X connect 5 0 6 0;
#X connect 6 0 4 1;
#X connect 6 0 7 0;
#X connect 7 0 11 0;
#X connect 8 0 14 0;
#X connect 9 0 12 0;
#X connect 10 0 11 0;
#X connect 11 0 14 1;
#X connect 12 0 10 0;
#X connect 13 0 2 0;
#X connect 13 1 9 0;
#X connect 15 0 8 0;
#X connect 15 1 4 0;
#X connect 16 0 17 0;
#X connect 17 0 27 0;
#X connect 18 0 19 0;
#X connect 19 0 20 0;
#X connect 20 0 18 1;
#X connect 20 0 21 0;
#X connect 21 0 24 0;
#X connect 22 0 30 0;
#X connect 23 0 24 0;
#X connect 24 0 26 1;
#X connect 25 0 16 0;
#X connect 25 1 22 0;
#X connect 27 0 29 0;
#X connect 27 1 18 0;
#X connect 28 0 25 0;
#X connect 29 0 26 0;
#X connect 30 0 23 0;
#X connect 31 0 33 0;
#X connect 32 0 33 0;
#X connect 33 0 1 0;
#X connect 33 1 34 0;
#X restore 201 129 pd distro;
#X obj 204 61 vsl 12 52 0.1 0.5 0 0 \$0-int5 \$0-int5init int 0 -9 0 8 #faff00 #000000 #000000 0 1;
#X obj 186 61 vsl 12 52 0.01 0.1 0 0 \$0-frq5 \$0-frq5init frq 0 -9 0 8 #feffc6 #000000 #000000 0 1;
#X obj 244 61 vsl 12 52 0.1 0.5 0 0 \$0-int6 \$0-int6init int 0 -9 0 8 #00faff #000000 #000000 0 1;
#X obj 226 61 vsl 12 52 0.01 0.1 0 0 \$0-frq6 \$0-frq6init frq 0 -9 0 8 #c6feff #000000 #000000 0 1;
#X obj 284 61 vsl 12 52 0.1 0.5 0 0 \$0-int7 \$0-int7init int 0 -9 0 8 #0400ff #000000 #000000 0 1;
#X obj 266 61 vsl 12 52 0.01 0.1 0 0 \$0-frq7 \$0-frq7init frq 0 -9 0 8 #c7c6ff #000000 #000000 0 1;
#X obj 324 61 vsl 12 52 0.1 0.5 0 0 \$0-int8 \$0-int8init int 0 -9 0 8 #9f9f9f #000000 #000000 0 1;
#X obj 306 61 vsl 12 52 0.01 0.1 0 0 \$0-frq8 \$0-frq8init frq 0 -9 0 8 #ffffff #000000 #000000 0 1;
#X obj 120 27 bng 14 250 50 0 \$0-rand \$0-randinit Rand/All 16 7 0 8 #dfdfdf #000000 #000000;
#X obj 238 27 bng 14 250 50 0 \$0-randint \$0-randintinit Rand/Int 16 7 0 8 #9f9f9f #000000 #000000;
#X obj 178 27 bng 14 250 50 0 \$0-randfrq \$0-randfrqinit Rand/Frq 16 7 0 8 #7c7c7c #000000 #000000;
#X obj 27 27 tgl 14 0 \$0-proctgl \$0-proctglinit Proc 16 7 0 8 #000000 #ffffff #000000 0 1;
#X obj 26 177 loadbang;
#X obj 26 201 f \$0;
#X obj 666 59 hradio 14 1 0 2 \$0-setosc \$0-setoscdummy ~\ \ Λ 4 -6 0 8 #ffffff #9c00ff #000000 0;
#X obj 26 129 inlet;
#X obj 26 153 s \$0-phreset;
#N canvas 96 136 1181 364 oscillators 0;
#X obj 243 114 r \$0-int1;
#X obj 211 61 osc~;
#X obj 247 61 phasor~;
#X obj 211 84 *~;
#X obj 247 84 *~;
#X obj 24 27 r \$0-setosc;
#X obj 24 51 expr if($f1 == 0 \, 1 \, 0) \; if($f1 == 1 \, 1 \, 0);
#X obj 211 138 *~, f 5;
#X obj 262 193 osc~;
#X obj 298 193 phasor~;
#X obj 262 216 *~;
#X obj 298 216 *~;
#X obj 262 270 *~, f 5;
#X obj 294 246 r \$0-int2;
#X obj 313 61 osc~;
#X obj 349 61 phasor~;
#X obj 313 84 *~;
#X obj 349 84 *~;
#X obj 313 138 *~, f 5;
#X obj 364 193 osc~;
#X obj 400 193 phasor~;
#X obj 364 216 *~;
#X obj 400 216 *~;
#X obj 364 270 *~, f 5;
#X obj 345 114 r \$0-int3;
#X obj 396 246 r \$0-int4;
#X obj 415 61 osc~;
#X obj 451 61 phasor~;
#X obj 415 84 *~;
#X obj 451 84 *~;
#X obj 415 138 *~, f 5;
#X obj 466 193 osc~;
#X obj 502 193 phasor~;
#X obj 466 216 *~;
#X obj 502 216 *~;
#X obj 466 270 *~, f 5;
#X obj 517 61 osc~;
#X obj 553 61 phasor~;
#X obj 517 84 *~;
#X obj 553 84 *~;
#X obj 517 138 *~, f 5;
#X obj 568 193 osc~;
#X obj 604 193 phasor~;
#X obj 568 216 *~;
#X obj 604 216 *~;
#X obj 568 270 *~, f 5;
#X obj 447 114 r \$0-int5;
#X obj 498 246 r \$0-int6;
#X obj 549 114 r \$0-int7;
#X obj 600 246 r \$0-int8;
#X obj 211 319 outlet~;
#X text 21 89 Switch between cosine and sawtooth oscillator., f 24;
#X obj 211 38 r \$0-frq1;
#X obj 262 170 r \$0-frq2;
#X obj 313 38 r \$0-frq3;
#X obj 364 170 r \$0-frq4;
#X obj 415 38 r \$0-frq5;
#X obj 466 170 r \$0-frq6;
#X obj 517 38 r \$0-frq7;
#X obj 568 170 r \$0-frq8;
#X obj 211 295 snake~ 16, f 110;
#X obj 620 61 osc~;
#X obj 656 61 phasor~;
#X obj 620 84 *~;
#X obj 656 84 *~;
#X obj 620 138 *~, f 5;
#X obj 671 193 osc~;
#X obj 707 193 phasor~;
#X obj 671 216 *~;
#X obj 707 216 *~;
#X obj 671 270 *~, f 5;
#X obj 722 61 osc~;
#X obj 758 61 phasor~;
#X obj 722 84 *~;
#X obj 758 84 *~;
#X obj 722 138 *~, f 5;
#X obj 773 193 osc~;
#X obj 809 193 phasor~;
#X obj 773 216 *~;
#X obj 809 216 *~;
#X obj 773 270 *~, f 5;
#X obj 824 61 osc~;
#X obj 860 61 phasor~;
#X obj 824 84 *~;
#X obj 860 84 *~;
#X obj 824 138 *~, f 5;
#X obj 875 193 osc~;
#X obj 911 193 phasor~;
#X obj 875 216 *~;
#X obj 911 216 *~;
#X obj 875 270 *~, f 5;
#X obj 926 61 osc~;
#X obj 962 61 phasor~;
#X obj 926 84 *~;
#X obj 962 84 *~;
#X obj 926 138 *~, f 5;
#X obj 978 193 osc~;
#X obj 1014 193 phasor~;
#X obj 978 216 *~;
#X obj 1014 216 *~;
#X obj 978 270 *~, f 5;
#X obj 620 38 r \$0-frq9;
#X obj 652 114 r \$0-int9;
#X obj 671 170 r \$0-frq10;
#X obj 703 246 r \$0-int10;
#X obj 722 38 r \$0-frq11;
#X obj 754 114 r \$0-int11;
#X obj 773 170 r \$0-frq12;
#X obj 805 246 r \$0-int12;
#X obj 824 38 r \$0-frq13;
#X obj 856 114 r \$0-int13;
#X obj 875 170 r \$0-frq14;
#X obj 907 246 r \$0-int14;
#X obj 926 38 r \$0-frq15;
#X obj 958 114 r \$0-int15;
#X obj 978 170 r \$0-frq16;
#X obj 1010 246 r \$0-int16;
#X obj 1075 19 r \$0-phreset;
#X msg 1075 42 0, f 1;
#X obj 1075 151 r \$0-phreset;
#X msg 1075 174 0, f 1;
#X obj 24 159 r \$0-setosc;
#X obj 24 183 expr if($f1 == 0 \, 1 \, 0) \; if($f1 == 1 \, 1 \, 0);
#X connect 0 0 7 1;
#X connect 1 0 3 0;
#X connect 2 0 4 0;
#X connect 3 0 7 0;
#X connect 4 0 7 0;
#X connect 5 0 6 0;
#X connect 6 0 16 1;
#X connect 6 0 63 1;
#X connect 6 0 93 1;
#X connect 6 0 83 1;
#X connect 6 0 73 1;
#X connect 6 1 4 1;
#X connect 6 1 39 1;
#X connect 6 1 29 1;
#X connect 6 1 17 1;
#X connect 6 1 64 1;
#X connect 6 1 74 1;
#X connect 6 1 84 1;
#X connect 6 1 94 1;
#X connect 7 0 60 0;
#X connect 8 0 10 0;
#X connect 9 0 11 0;
#X connect 10 0 12 0;
#X connect 11 0 12 0;
#X connect 12 0 60 1;
#X connect 13 0 12 1;
#X connect 14 0 16 0;
#X connect 15 0 17 0;
#X connect 16 0 18 0;
#X connect 17 0 18 0;
#X connect 18 0 60 2;
#X connect 19 0 21 0;
#X connect 20 0 22 0;
#X connect 21 0 23 0;
#X connect 22 0 23 0;
#X connect 23 0 60 3;
#X connect 24 0 18 1;
#X connect 25 0 23 1;
#X connect 26 0 28 0;
#X connect 27 0 29 0;
#X connect 28 0 30 0;
#X connect 29 0 30 0;
#X connect 30 0 60 4;
#X connect 31 0 33 0;
#X connect 32 0 34 0;
#X connect 33 0 35 0;
#X connect 34 0 35 0;
#X connect 35 0 60 5;
#X connect 36 0 38 0;
#X connect 37 0 39 0;
#X connect 38 0 40 0;
#X connect 39 0 40 0;
#X connect 40 0 60 6;
#X connect 41 0 43 0;
#X connect 42 0 44 0;
#X connect 43 0 45 0;
#X connect 44 0 45 0;
#X connect 45 0 60 7;
#X connect 46 0 30 1;
#X connect 47 0 35 1;
#X connect 48 0 40 1;
#X connect 49 0 45 1;
#X connect 52 0 1 0;
#X connect 52 0 2 0;
#X connect 53 0 8 0;
#X connect 53 0 9 0;
#X connect 54 0 14 0;
#X connect 54 0 15 0;
#X connect 55 0 19 0;
#X connect 55 0 20 0;
#X connect 56 0 26 0;
#X connect 56 0 27 0;
#X connect 57 0 31 0;
#X connect 57 0 32 0;
#X connect 58 0 36 0;
#X connect 58 0 37 0;
#X connect 59 0 41 0;
#X connect 59 0 42 0;
#X connect 60 0 50 0;
#X connect 61 0 63 0;
#X connect 62 0 64 0;
#X connect 63 0 65 0;
#X connect 64 0 65 0;
#X connect 65 0 60 8;
#X connect 66 0 68 0;
#X connect 67 0 69 0;
#X connect 68 0 70 0;
#X connect 69 0 70 0;
#X connect 70 0 60 9;
#X connect 71 0 73 0;
#X connect 72 0 74 0;
#X connect 73 0 75 0;
#X connect 74 0 75 0;
#X connect 75 0 60 10;
#X connect 76 0 78 0;
#X connect 77 0 79 0;
#X connect 78 0 80 0;
#X connect 79 0 80 0;
#X connect 80 0 60 11;
#X connect 81 0 83 0;
#X connect 82 0 84 0;
#X connect 83 0 85 0;
#X connect 84 0 85 0;
#X connect 85 0 60 12;
#X connect 86 0 88 0;
#X connect 87 0 89 0;
#X connect 88 0 90 0;
#X connect 89 0 90 0;
#X connect 90 0 60 13;
#X connect 91 0 93 0;
#X connect 92 0 94 0;
#X connect 93 0 95 0;
#X connect 94 0 95 0;
#X connect 95 0 60 14;
#X connect 96 0 98 0;
#X connect 97 0 99 0;
#X connect 98 0 100 0;
#X connect 99 0 100 0;
#X connect 100 0 60 15;
#X connect 101 0 61 0;
#X connect 101 0 62 0;
#X connect 102 0 65 1;
#X connect 103 0 66 0;
#X connect 103 0 67 0;
#X connect 104 0 70 1;
#X connect 105 0 71 0;
#X connect 105 0 72 0;
#X connect 106 0 75 1;
#X connect 107 0 76 0;
#X connect 107 0 77 0;
#X connect 108 0 80 1;
#X connect 109 0 81 0;
#X connect 109 0 82 0;
#X connect 110 0 85 1;
#X connect 111 0 86 0;
#X connect 111 0 87 0;
#X connect 112 0 90 1;
#X connect 113 0 91 0;
#X connect 113 0 92 0;
#X connect 114 0 95 1;
#X connect 115 0 96 0;
#X connect 115 0 97 0;
#X connect 116 0 100 1;
#X connect 117 0 118 0;
#X connect 118 0 92 1;
#X connect 118 0 2 1;
#X connect 118 0 15 1;
#X connect 118 0 27 1;
#X connect 118 0 37 1;
#X connect 118 0 62 1;
#X connect 118 0 72 1;
#X connect 118 0 82 1;
#X connect 119 0 120 0;
#X connect 120 0 97 1;
#X connect 120 0 9 1;
#X connect 120 0 20 1;
#X connect 120 0 32 1;
#X connect 120 0 42 1;
#X connect 120 0 67 1;
#X connect 120 0 77 1;
#X connect 120 0 87 1;
#X connect 121 0 122 0;
#X connect 122 0 10 1;
#X connect 122 0 98 1;
#X connect 122 0 88 1;
#X connect 122 0 78 1;
#X connect 122 0 68 1;
#X connect 122 0 43 1;
#X connect 122 0 33 1;
#X connect 122 0 21 1;
#X connect 122 1 99 1;
#X connect 122 1 89 1;
#X connect 122 1 79 1;
#X connect 122 1 69 1;
#X connect 122 1 44 1;
#X connect 122 1 34 1;
#X connect 122 1 22 1;
#X connect 122 1 11 1;
#X restore 201 153 pd oscillators;
#X obj 201 226 *~;
#X obj 219 203 lop~ 1;
#X obj 219 179 r \$0-oaint;
#X obj 69 27 hsl 42 14 0.5 3 0 0 \$0-oaint \$0-oaintdummy INT 14 7 0 8 #000000 #ffffff #ffffff 0 1;
#X obj 96 177 r \$0-reset;
#X obj 666 79 hradio 14 1 0 2 \$0-setdir \$0-setdirdummy +\ - 3 7 0 12 #ffffff #000000 #000000 0;
#X msg 26 225 \; \$1-proctglinit 1 \; \$1-setoscdummy 0 \; \$1-oaintdummy 1 \; \$1-setdirdummy 0;
#X obj 201 298 *~;
#X obj 219 275 lop~ 1;
#N canvas 333 385 202 101 dircalc 0;
#X obj 10 15 r \$0-setdir;
#X obj 10 39 expr if($f1 == 0 \, 1 \, -1);
#X obj 10 63 outlet;
#X connect 0 0 1 0;
#X connect 1 0 2 0;
#X restore 219 250 pd dircalc;
#X obj 201 370 *~;
#X obj 219 322 r \$0-proctgl;
#X obj 219 346 lop~ 1;
#X obj 364 61 vsl 12 52 0.1 0.5 0 0 \$0-int9 \$0-int9init int 0 -9 0 8 #ff8300 #000000 #000000 0 1;
#X obj 346 61 vsl 12 52 0.01 0.1 0 0 \$0-frq9 \$0-frq9init frq 0 -9 0 8 #ffe3c6 #000000 #000000 0 1;
#X obj 404 61 vsl 12 52 0.1 0.5 0 0 \$0-int10 \$0-int10init int 0 -9 0 8 #00ff04 #000000 #000000 0 1;
#X obj 386 61 vsl 12 52 0.01 0.1 0 0 \$0-frq10 \$0-frq10init frq 0 -9 0 8 #c6ffc7 #000000 #000000 0 1;
#X obj 444 61 vsl 12 52 0.1 0.5 0 0 \$0-int11 \$0-int11init int 0 -9 0 8 #ff0400 #000000 #000000 0 1;
#X obj 426 61 vsl 12 52 0.01 0.1 0 0 \$0-frq11 \$0-frq11init frq 0 -9 0 8 #ffc7c6 #000000 #000000 0 1;
#X obj 484 61 vsl 12 52 0.1 0.5 0 0 \$0-int12 \$0-int12init int 0 -9 0 8 #9c00ff #000000 #000000 0 1;
#X obj 466 61 vsl 12 52 0.01 0.1 0 0 \$0-frq12 \$0-frq12init frq 0 -9 0 8 #e3c6ff #000000 #000000 0 1;
#X obj 524 61 vsl 12 52 0.1 0.5 0 0 \$0-int13 \$0-int13init int 0 -9 0 8 #faff00 #000000 #000000 0 1;
#X obj 506 61 vsl 12 52 0.01 0.1 0 0 \$0-frq13 \$0-frq13init frq 0 -9 0 8 #feffc6 #000000 #000000 0 1;
#X obj 564 61 vsl 12 52 0.1 0.5 0 0 \$0-int14 \$0-int14init int 0 -9 0 8 #00faff #000000 #000000 0 1;
#X obj 546 61 vsl 12 52 0.01 0.1 0 0 \$0-frq14 \$0-frq14init frq 0 -9 0 8 #c6feff #000000 #000000 0 1;
#X obj 604 61 vsl 12 52 0.1 0.5 0 0 \$0-int15 \$0-int15init int 0 -9 0 8 #0400ff #000000 #000000 0 1;
#X obj 586 61 vsl 12 52 0.01 0.1 0 0 \$0-frq15 \$0-frq15init frq 0 -9 0 8 #c7c6ff #000000 #000000 0 1;
#X obj 644 61 vsl 12 52 0.1 0.5 0 0 \$0-int16 \$0-int16init int 0 -9 0 8 #9f9f9f #000000 #000000 0 1;
#X obj 626 61 vsl 12 52 0.01 0.1 0 0 \$0-frq16 \$0-frq16init frq 0 -9 0 8 #ffffff #000000 #000000 0 1;
#X text 342 152 modulator16 is a simple 16 channel sine lfo for use with lateefah_maxi_mod abstraction., f 44;
#X text 496 209 Last updated: 09.07.26;
#X connect 23 0 24 0;
#X connect 24 0 35 0;
#X connect 26 0 27 0;
#X connect 28 0 29 0;
#X connect 29 0 36 0;
#X connect 30 0 29 1;
#X connect 31 0 30 0;
#X connect 33 0 24 0;
#X connect 36 0 39 0;
#X connect 37 0 36 1;
#X connect 38 0 37 0;
#X connect 39 0 8 0;
#X connect 40 0 41 0;
#X connect 41 0 39 1;
#X coords 0 -1 1 1 680 100 2 20 20;
