#N canvas 781 181 511 425 12;
#X obj 10 64 f 0;
#X msg 10 88 seed \$1;
#X obj 10 112 noise~;
#X obj 10 184 *~;
#X obj 10 255 +~;
#X obj 10 366 *~;
#X obj 10 389 outlet~;
#X obj 10 11 inlet bang;
#X obj 28 40 r \$0-seed;
#X obj 28 160 lop~ 10;
#X obj 28 232 lop~ 10;
#X obj 116 11 inlet config;
#X obj 116 155 s \$0-seedinit;
#X obj 116 179 s \$0-rnginit;
#X obj 116 203 s \$0-ofsinit;
#X floatatom 348 40 8 0 0 1 Seed \$0-seedinit \$0-seed 10;
#X floatatom 398 65 4 -12 12 1 - \$0-rng \$0-rngdummy 10;
#X obj 28 136 r \$0-rng;
#X obj 28 208 r \$0-ofs;
#X obj 116 83 loadbang;
#X obj 330 65 hsl 60 15 -4 4 0 0 \$0-rng \$0-rnginit Range 15 7 0 10 #fcfcfc #000000 #000000 0 1;
#X floatatom 398 85 4 -2 2 1 - \$0-ofs \$0-ofsdummy 10;
#X obj 330 85 hsl 60 15 -2 2 0 0 \$0-ofs \$0-ofsinit Offset 12 7 0 10 #fcfcfc #000000 #000000 0 1;
#X text 344 361 Author: Martin Heinze;
#X obj 28 279 inlet~ mod;
#X obj 327 40 bng 15 250 50 0 \$0-rndm \$0-rndminit empty 0 -10 0 12 #fcfcfc #000000 #000000;
#X obj 73 342 r \$0-rndm;
#X obj 73 389 s \$0-seedinit;
#X obj 73 366 random 999999;
#X obj 327 108 tgl 15 0 \$0-modo \$0-modoinit Mod. 18 8 0 10 #fcfcfc #000000 #000000 0 1;
#X obj 28 303 expr~ if($f2 == 1 \, $v1 \, 1), f 13;
#X obj 116 279 r \$0-modo;
#X obj 180 83 r \$0-res;
#X obj 389 108 bng 15 250 50 0 \$0-res \$0-resinit r 5 8 0 8 #000000 #ffffff #ffffff;
#X text 333 13 == saatR ==;
#X obj 116 131 unpack f f f f;
#X obj 116 227 s \$0-modoinit;
#X text 232 223 saatR generates random noise sample patterns based on predefined seeds. These patterns can be restarted via bangs to the first inlet. Range slider multiplies sample values \, Offset slider shifts window of values. The pattern can be modulated by an external signal source via the second inlet (switch on Mod. toggle)., f 37;
#X obj 116 59 s \$0-rndminit;
#X obj 409 108 bng 15 250 50 0 \$0-print \$0-printinit p 5 7 0 8 #fcfcfc #000000 #000000;
#X obj 175 389 outlet;
#N canvas 306 433 300 211 printer 0;
#X obj 109 9 r \$0-seed;
#X obj 109 33 r \$0-rng;
#X obj 109 57 r \$0-ofs;
#X obj 109 81 r \$0-modo;
#X obj 14 106 pack f f f f f;
#X obj 14 19 r \$0-print;
#X obj 14 73 f \$0;
#X obj 14 175 print saatR;
#X obj 24 129 list split 1;
#X obj 64 152 outlet;
#X obj 186 94 s \$0-seedinit;
#X obj 186 118 s \$0-rnginit;
#X obj 186 142 s \$0-ofsinit;
#X msg 186 62 bang;
#X obj 14 43 t b b;
#X connect 0 0 4 1;
#X connect 1 0 4 2;
#X connect 2 0 4 3;
#X connect 3 0 4 4;
#X connect 4 0 8 0;
#X connect 4 0 7 0;
#X connect 5 0 14 0;
#X connect 6 0 4 0;
#X connect 8 1 9 0;
#X connect 13 0 10 0;
#X connect 13 0 12 0;
#X connect 13 0 11 0;
#X connect 14 0 6 0;
#X connect 14 1 13 0;
#X restore 175 366 pd printer;
#X obj 116 35 route bang list float, f 22;
#X msg 116 107 444444 1 0 0;
#X obj 216 59 s \$0-seedinit;
#X text 323 376 Last updated: 10.08.2025;
#X connect 0 0 1 0;
#X connect 1 0 2 0;
#X connect 2 0 3 0;
#X connect 3 0 4 0;
#X connect 4 0 5 0;
#X connect 5 0 6 0;
#X connect 7 0 0 0;
#X connect 8 0 0 1;
#X connect 9 0 3 1;
#X connect 10 0 4 1;
#X connect 11 0 42 0;
#X connect 17 0 9 0;
#X connect 18 0 10 0;
#X connect 19 0 43 0;
#X connect 24 0 30 0;
#X connect 26 0 28 0;
#X connect 28 0 27 0;
#X connect 30 0 5 1;
#X connect 31 0 30 1;
#X connect 32 0 43 0;
#X connect 35 0 12 0;
#X connect 35 1 13 0;
#X connect 35 2 14 0;
#X connect 35 3 36 0;
#X connect 41 0 40 0;
#X connect 42 0 38 0;
#X connect 42 1 35 0;
#X connect 42 2 44 0;
#X connect 43 0 35 0;
#X coords 0 -1 1 1 110 120 2 320 10;
