#N canvas 232 116 527 600 12;
#X obj 17 470 tabread4~ \$0-sampler;
#X obj 17 562 outlet~;
#X obj 17 399 *~;
#N canvas 718 158 555 264 arrayconf 0;
#X obj 19 153 until;
#X obj 149 129 i;
#X obj 149 153 + 1;
#X obj 19 177 t b b;
#X obj 19 201 expr random(-1000 \, 1000)*0.001;
#X obj 149 177 mod;
#X obj 19 227 tabwrite \$0-sampler;
#X obj 30 13 r \$0-setwin;
#X obj 247 107 f \$0;
#X obj 338 107 * -1;
#X obj 250 131 pack f f f f, f 13;
#X obj 292 32 r \$0-wd;
#X obj 292 83 t b f f;
#X obj 247 55 t b f;
#X msg 19 130 \$1, f 2;
#X obj 30 36 t f f f;
#X msg 250 157 \; \$1-sampler bounds 0 \$3 \$2 \$4 \; \$1-sampler resize \$2;
#X obj 292 56 expr 1/$f1*6;
#X obj 19 108 f, f 2;
#X obj 19 85 r \$0-rand;
#X connect 0 0 3 0;
#X connect 1 0 2 0;
#X connect 2 0 5 0;
#X connect 3 0 4 0;
#X connect 3 1 1 0;
#X connect 4 0 6 0;
#X connect 5 0 1 1;
#X connect 5 0 6 1;
#X connect 7 0 15 0;
#X connect 8 0 10 0;
#X connect 9 0 10 3;
#X connect 10 0 16 0;
#X connect 11 0 17 0;
#X connect 12 0 8 0;
#X connect 12 1 10 2;
#X connect 12 2 9 0;
#X connect 13 0 8 0;
#X connect 13 1 10 1;
#X connect 14 0 0 0;
#X connect 15 0 18 1;
#X connect 15 1 5 1;
#X connect 15 2 13 0;
#X connect 17 0 12 0;
#X connect 18 0 14 0;
#X connect 19 0 18 0;
#X coords 0 0 1 1 85 60 0;
#X restore 17 197 pd arrayconf;
#X obj 18 47 bng 14 250 50 0 \$0-opar \$0-opardummy o 5 7 0 8 #fcfcfc #000000 #000000;
#X obj 167 47 bng 14 250 50 0 \$0-svar \$0-svardummy s 5 7 0 8 #fcfcfc #000000 #000000;
#X symbolatom 36 47 25 0 0 2 - \$0-filnam \$0-filnamdummy 8;
#X obj 218 279 inlet;
#X obj 218 303 s \$0-ofiler;
#X obj 17 539 *~;
#X obj 35 493 r \$0-wd;
#X obj 167 86 vsl 14 48 0.1 6 0 0 \$0-wddis \$0-wdinit empty 0 -9 0 12 #fcfcfc #000000 #000000 0 1;
#X floatatom 167 139 3 0 0 2 - \$0-wddis \$0-wd 8;
#X obj 272 350 s \$0-wdinit;
#N canvas 525 99 372 266 exporter 0;
#X obj 12 38 savepanel;
#X obj 12 114 f \$0;
#X obj 12 192 pack f s, f 14;
#X obj 12 13 r \$0-svar;
#X obj 107 13 r \$0-wd;
#X obj 107 164 makefilename;
#X obj 12 63 t b s;
#X msg 12 216 \; \$1-sampler write \$2;
#X msg 107 63 set \$1;
#X obj 107 114 makefilename;
#X msg 107 139 set \$1;
#X obj 117 87 r \$0-lookup;
#X obj 107 38 makefilename %%%%s__%%f__%f.seed;
#X connect 0 0 6 0;
#X connect 1 0 2 0;
#X connect 2 0 7 0;
#X connect 3 0 0 0;
#X connect 4 0 12 0;
#X connect 5 0 2 1;
#X connect 6 0 1 0;
#X connect 6 1 5 0;
#X connect 8 0 9 0;
#X connect 9 0 10 0;
#X connect 10 0 5 0;
#X connect 11 0 9 0;
#X connect 12 0 8 0;
#X restore 103 221 pd exporter;
#N canvas 579 216 191 270 importer 0;
#X obj 9 9 r \$0-opar;
#X msg 9 156 read -ascii -resize \$2 \$1-sampler, f 20;
#X obj 9 37 openpanel;
#X obj 9 109 f \$0;
#X obj 9 134 pack f s;
#X obj 9 194 soundfiler;
#X obj 19 61 r \$0-ofiler;
#N canvas 768 140 196 189 readfname 0;
#X obj 18 41 file splitname;
#X obj 18 69 list split 1;
#X obj 58 96 file splitext;
#X obj 58 124 list split 1;
#X obj 58 152 s \$0-filnam;
#X obj 18 13 inlet;
#X connect 0 0 1 0;
#X connect 1 1 2 0;
#X connect 2 0 3 0;
#X connect 3 0 4 0;
#X connect 5 0 0 0;
#X restore 76 134 pd readfname;
#X obj 9 85 t b s s, f 10;
#X obj 9 240 s \$0-wdinit;
#X msg 9 217 1, f 1;
#X connect 0 0 2 0;
#X connect 1 0 5 0;
#X connect 2 0 8 0;
#X connect 3 0 4 0;
#X connect 4 0 1 0;
#X connect 5 0 10 0;
#X connect 6 0 8 0;
#X connect 8 0 3 0;
#X connect 8 1 4 1;
#X connect 8 2 7 0;
#X connect 10 0 9 0;
#X restore 17 221 pd importer;
#N canvas 585 560 245 158 showoff 0;
#X obj 12 14 inlet~;
#X obj 12 86 snapshot~;
#X obj 85 86 pack f f;
#X obj 106 38 t b f;
#X obj 85 62 f \$0;
#X msg 85 110 \; \$1-posi range 0 \$2;
#X obj 12 110 s \$0-posi;
#X obj 22 62 bang~;
#X obj 106 14 r \$0-setwin;
#X connect 0 0 1 0;
#X connect 1 0 6 0;
#X connect 2 0 5 0;
#X connect 3 0 4 0;
#X connect 3 1 2 1;
#X connect 4 0 2 0;
#X connect 7 0 1 0;
#X connect 8 0 3 0;
#X restore 27 445 pd showoff;
#X obj 21 84 hsl 140 70 0 22 0 0 \$0-posidummy \$0-posi empty -2 -10 0 12 #ffffff #ffc7c6 #000000 0 1;
#X obj 35 516 lop~ 1;
#X obj 17 423 +~ 1;
#X text 351 253 Author: Martin Heinze;
#X obj 17 350 phasor~, f 13;
#X obj 21 157 hsl 140 15 0.01 1 1 0 \$0-lookup \$0-lookupinit Lookup\ freq.\ /\ datapoints 8 8 0 8 #fcfcfc #000000 #000000 0 1;
#X obj 17 327 r \$0-lookup;
#X obj 35 375 r \$0-setwin;
#X obj 105 279 inlet;
#X obj 156 350 s \$0-lookupinit;
#X obj 156 327 unpack f f, f 17;
#X obj 105 303 route bang list;
#X msg 105 327 0, f 1;
#X text 211 21 Saatgut2 is a latent sample player for RAVE models that generates an amount of randomized datapoints in relation to current sample rate and a definable frequency (phasor~) for latent variable lookup. The slider on the right multiplies data point values. Arrays can be saved into and loaded from files., f 41;
#X text 34 18 ..:= SAATGUT2 =:..;
#X obj 167 158 bng 14 250 50 0 \$0-rand \$0-randinit r 5 7 0 8 #fcfcfc #000000 #000000;
#N canvas 668 268 809 438 (subpatch) 0;
#X array \$0-sampler 22 float 2;
#A color 0;
#A width 2;
#X coords 0 3.46438 22 -3.46438 145 70 2 0 0;
#X restore 18 84 graph;
#N canvas 913 542 193 183 presets 0;
#X obj 7 8 loadbang;
#X obj 7 32 f \$0;
#X msg 7 56 \; \$1-wdinit 1 \; \$1-sampler edit 0 \; \$1-samplerate bang \; \$1-lookupinit 1 \; \$1-filnam symbol --------------------, f 20;
#X connect 0 0 1 0;
#X connect 1 0 2 0;
#X restore 17 245 pd presets;
#N canvas 765 251 294 140 arcalc 1;
#X obj 166 36 samplerate~;
#X obj 166 59 expr $f1/2048;
#X obj 8 81 expr abs(ceil($f2/$f1));
#X obj 8 102 s \$0-setwin;
#X obj 8 60 r \$0-lookup;
#X obj 166 13 r \$0-samplerate;
#X connect 0 0 1 0;
#X connect 1 0 2 1;
#X connect 2 0 3 0;
#X connect 4 0 2 0;
#X connect 5 0 0 0;
#X restore 110 197 pd arcalc;
#X text 211 140 RAVE models encode audio data with a compression rate of 2048 The sample rate of relevant vectors in latent space is <22Hz at 44.1KHz audio sample rate. That means that RAVE decoders can work with as low as 22 data points per latent dimension., f 41;
#X text 344 269 Last updated: 05.11.25;
#N canvas 527 561 197 168 printer 0;
#X obj 12 56 f \$0;
#X obj 12 80 pack f f f;
#X obj 80 58 r \$0-wd;
#X obj 45 34 r \$0-lookup;
#X obj 12 104 list split 1;
#X obj 52 129 print \$0-saatgut2;
#X obj 12 10 r \$0-print;
#X connect 0 0 1 0;
#X connect 1 0 4 0;
#X connect 2 0 1 2;
#X connect 3 0 1 1;
#X connect 4 1 5 0;
#X connect 6 0 0 0;
#X restore 96 245 pd printer;
#X obj 167 67 bng 14 250 50 0 \$0-print \$0-printinit p 5 6 0 8 #fcfcfc #000000 #000000;
#X connect 0 0 9 0;
#X connect 2 0 19 0;
#X connect 7 0 8 0;
#X connect 9 0 1 0;
#X connect 10 0 18 0;
#X connect 18 0 9 1;
#X connect 19 0 0 0;
#X connect 19 0 16 0;
#X connect 21 0 2 0;
#X connect 23 0 21 0;
#X connect 24 0 2 1;
#X connect 25 0 28 0;
#X connect 27 0 26 0;
#X connect 27 1 13 0;
#X connect 28 0 29 0;
#X connect 28 1 27 0;
#X connect 29 0 21 1;
#X coords 0 -1 1 1 180 165 2 10 15;
