#N canvas 905 90 447 498 12;
#X obj 14 40 t b b;
#X obj 46 64 i;
#X obj 46 88 + 1;
#X obj 46 136 array get \$0-seedbank;
#X obj 14 182 i, f 5;
#X msg 14 206 seed \$1;
#X obj 14 230 noise~;
#X obj 14 461 outlet~;
#X obj 78 88 r \$0-arsz;
#X obj 46 112 mod, f 5;
#X obj 248 64 array set \$0-seedbank;
#N canvas 387 194 474 626 helper 0;
#X obj 14 124 array get \$0-seedbank, f 27;
#X obj 14 220 print;
#X obj 14 148 t a a;
#X obj 14 172 list length;
#X obj 14 196 list append;
#X text 103 195 <- print index and current array contents.;
#X obj 14 53 r \$0-printer;
#X msg 37 330 \$1, f 2;
#X obj 37 354 until;
#X msg 37 402 append \$1;
#X obj 14 431 list store;
#X obj 14 307 t b f b;
#X obj 37 378 random 99999;
#X obj 14 456 array set \$0-seedbank;
#X obj 14 259 r \$0-randr;
#X text 103 430 <- randomize all seeds in array.;
#X msg 14 283 99, f 2;
#X obj 14 14 array define \$0-seedbank 99;
#X obj 14 495 loadbang;
#X obj 14 519 f \$0;
#X msg 14 543 \; \$1-arszinit 4 \; \$1-sclerinit 1.2 \; \$1-randrinit bang \;;
#X obj 107 53 r \$0-arsz;
#X text 182 52 <- only retrieve currently active seeds;
#X obj 14 77 t b b;
#X obj 46 100 s \$0-arszinit;
#X connect 0 0 2 0;
#X connect 2 0 3 0;
#X connect 2 1 4 1;
#X connect 3 0 4 0;
#X connect 4 0 1 0;
#X connect 6 0 23 0;
#X connect 7 0 8 0;
#X connect 8 0 12 0;
#X connect 9 0 10 0;
#X connect 10 0 13 0;
#X connect 11 0 10 0;
#X connect 11 1 7 0;
#X connect 11 2 10 1;
#X connect 12 0 9 0;
#X connect 14 0 16 0;
#X connect 16 0 11 0;
#X connect 18 0 19 0;
#X connect 19 0 20 0;
#X connect 21 0 0 1;
#X connect 23 0 0 0;
#X connect 23 1 24 0;
#X restore 82 461 pd helper;
#X obj 235 284 bng 16 250 50 0 \$0-printer \$0-printerdummy рқ”ӯрқ”Ҝрқ”Ұрқ”«рқ”ұ 18 8 0 10 #ffffff #000000 #000000;
#X obj 235 263 bng 16 250 50 0 \$0-randr \$0-randrinit рқ”Ҝрқ”һрқ”«рқ”Ўрқ”¬рқ”Ә 18 8 0 10 #9f9f9f #404040 #000000;
#X floatatom 235 203 2 1 99 1 рқ”©рқ”ўрқ”«рқ”Өрқ”ұрқ”Ҙ \$0-arszinit \$0-arsz 10;
#X obj 208 136 s \$0-arszinit;
#X obj 208 15 inlet Preset;
#X obj 14 15 inlet Bang;
#X obj 248 88 array size \$0-seedbank;
#X text 233 183 н өнҙ°н өнҙЎн өнҙҹн өнҙө;
#X text 274 282 рҹҳұ;
#X text 246 430 Author: Martin Heinze, f 22;
#X floatatom 235 223 5 1 99 1 рқ”°рқ”ўрқ”ўрқ”Ў \$0-nowpl \$0-nowpldummy 10;
#X obj 79 201 s \$0-nowpl;
#X obj 46 160 i, f 2;
#X obj 14 435 *~, f 2;
#X obj 238 243 hsl 48 16 1 3 0 0 \$0-scler \$0-sclerinit рқ”°рқ” рқ”һрқ”©рқ”ў 12 8 0 10 #ffffff #000000 #000000 0 1;
#X obj 25 386 r \$0-scler;
#X obj 25 410 lop~ 10;
#X text 211 350 Lightweight latent jamming component. Store up to 99 random values in an array and push them sequentially into noise~, f 27;
#X text 246 447 Last updated: 09.07.26;
#X obj 274 184 tgl 16 0 \$0-positgl \$0-positglinit empty 0 -10 0 12 #fcfcfc #000000 #000000 0 1;
#X obj 14 338 +~;
#X obj 32 278 expr if($f1==1 \, 1 \, 0) \; if($f1==1 \, 2 \, 1) \;;
#X obj 32 254 r \$0-positgl;
#X obj 32 315 sig~ 0;
#X obj 14 362 /~ 1, f 6;
#X obj 317 136 s \$0-positglinit;
#X obj 317 159 s \$0-sclerinit;
#X obj 208 112 unpack f f f, f 16;
#X obj 208 40 list split 3;
#X connect 0 0 4 0;
#X connect 0 1 1 0;
#X connect 1 0 2 0;
#X connect 2 0 9 0;
#X connect 3 0 24 0;
#X connect 4 0 5 0;
#X connect 4 0 23 0;
#X connect 5 0 6 0;
#X connect 6 0 32 0;
#X connect 8 0 9 1;
#X connect 9 0 1 1;
#X connect 9 0 3 0;
#X connect 16 0 40 0;
#X connect 17 0 0 0;
#X connect 24 0 4 1;
#X connect 25 0 7 0;
#X connect 27 0 28 0;
#X connect 28 0 25 1;
#X connect 32 0 36 0;
#X connect 33 0 35 0;
#X connect 33 1 36 1;
#X connect 34 0 33 0;
#X connect 35 0 32 1;
#X connect 36 0 25 0;
#X connect 39 0 15 0;
#X connect 39 1 37 0;
#X connect 39 2 38 0;
#X connect 40 0 39 0;
#X connect 40 1 10 0;
#X coords 0 -1 1 1 65 125 2 230 180;
