#N canvas 259 410 598 245 12;
#X obj 11 14 inlet;
#X obj 11 63 outlet;
#X obj 11 39 expr if($f1==0 \, $f2 \, $f3);
#X obj 342 114 random 999999;
#X obj 342 185 random 999999;
#X floatatom 527 44 7 0 0 0 - \$0-seed1init \$0-seed1 10;
#X obj 342 137 s \$0-seed1init;
#X obj 342 208 s \$0-seed2init;
#X floatatom 527 64 7 0 0 0 - \$0-seed2init \$0-seed2 10;
#X obj 342 90 r \$0-seed1ran;
#X obj 342 161 r \$0-seed2ran;
#X obj 508 44 bng 15 250 50 0 \$0-seed1ran \$0-seed1raninit empty 0 -10 0 10 #fcfcfc #000000 #000000;
#X obj 508 64 bng 15 250 50 0 \$0-seed2ran \$0-seed2raninit empty 0 -10 0 10 #fcfcfc #000000 #000000;
#X obj 56 14 r \$0-seed1;
#X obj 136 14 r \$0-seed2;
#X obj 220 14 inlet;
#X obj 220 39 unpack f f;
#X obj 220 63 s \$0-seed1init;
#X obj 220 86 s \$0-seed2init;
#X text 506 21 .:seedR:.;
#X obj 342 14 loadbang;
#X obj 342 38 s \$0-seed1raninit;
#X obj 342 61 s \$0-seed2raninit;
#X text 176 195 Author: Martin Heinze;
#X text 155 210 Last updated: 09.08.2025;
#X text 8 127 seedR is an addon for saatR that can store two seed values. Toggle 0/1 via first inlet outputs one or the other. It's not much \, but it's honest work., f 45;
#X connect 0 0 2 0;
#X connect 2 0 1 0;
#X connect 3 0 6 0;
#X connect 4 0 7 0;
#X connect 9 0 3 0;
#X connect 10 0 4 0;
#X connect 13 0 2 1;
#X connect 14 0 2 2;
#X connect 15 0 16 0;
#X connect 16 0 17 0;
#X connect 16 1 18 0;
#X connect 20 0 21 0;
#X connect 20 0 22 0;
#X coords 0 -1 1 1 80 65 2 500 20;
